<svg width="14" height="14" viewBox="0 0 14 14" fill="none" xmlns="http://www.w3.org/2000/svg">
<path fill-rule="evenodd" clip-rule="evenodd" d="M4.81261 3.50883V2.91675C4.81261 2.33659 5.04308 1.78019 5.45332 1.36995C5.86355 0.959716 6.41995 0.729248 7.00011 0.729248C7.58028 0.729248 8.13667 0.959716 8.54691 1.36995C8.95715 1.78019 9.18761 2.33659 9.18761 2.91675V3.50883C9.93836 3.53158 10.398 3.61208 10.7486 3.90316C11.2345 4.30683 11.3629 4.98933 11.6189 6.35491L12.0564 8.68825C12.4164 10.6086 12.596 11.5687 12.0716 12.2011C11.5466 12.8334 10.5695 12.8334 8.61595 12.8334H5.38428C3.43011 12.8334 2.45361 12.8334 1.92861 12.2011C1.40361 11.5687 1.58445 10.6086 1.94378 8.68825L2.38128 6.35491C2.63795 4.98991 2.7657 4.30683 3.25161 3.90316C3.6022 3.61208 4.06186 3.53158 4.81261 3.50883ZM5.68761 2.91675C5.68761 2.56865 5.8259 2.23481 6.07204 1.98867C6.31818 1.74253 6.65202 1.60425 7.00011 1.60425C7.34821 1.60425 7.68205 1.74253 7.92819 1.98867C8.17433 2.23481 8.31261 2.56865 8.31261 2.91675V3.50008H5.68761V2.91675Z" fill="#30B0C5"/>
</svg>
