<svg width="28" height="28" viewBox="0 0 28 28" fill="none" xmlns="http://www.w3.org/2000/svg">
<path d="M22.75 10.5H15.75V3.5H5.25V24.5H22.75V10.5ZM22.0255 8.75L17.5 4.2245V8.75H22.0255ZM4.375 1.75H17.5L24.5 8.75V25.375C24.5 25.6071 24.4078 25.8296 24.2437 25.9937C24.0796 26.1578 23.8571 26.25 23.625 26.25H4.375C4.14294 26.25 3.92038 26.1578 3.75628 25.9937C3.59219 25.8296 3.5 25.6071 3.5 25.375V2.625C3.5 2.39294 3.59219 2.17038 3.75628 2.00628C3.92038 1.84219 4.14294 1.75 4.375 1.75ZM8.75 14H19.25V15.75H8.75V14ZM8.75 8.75H13.125V10.5H8.75V8.75ZM8.75 19.25H19.25V21H8.75V19.25Z" fill="#80B644"/>
</svg>
