<svg width="16" height="16" viewBox="0 0 16 16" fill="none" xmlns="http://www.w3.org/2000/svg">
<path fill-rule="evenodd" clip-rule="evenodd" d="M9.50001 1.66667C9.50001 1.62246 9.48245 1.58007 9.45119 1.54882C9.41994 1.51756 9.37755 1.5 9.33334 1.5H4.66668C4.18045 1.5 3.71413 1.69315 3.37031 2.03697C3.0265 2.38079 2.83334 2.8471 2.83334 3.33333V12.6667C2.83334 13.1529 3.0265 13.6192 3.37031 13.963C3.71413 14.3068 4.18045 14.5 4.66668 14.5H11.3333C11.8196 14.5 12.2859 14.3068 12.6297 13.963C12.9735 13.6192 13.1667 13.1529 13.1667 12.6667V6.098C13.1667 6.0538 13.1491 6.0114 13.1179 5.98015C13.0866 5.94889 13.0442 5.93133 13 5.93133H10C9.8674 5.93133 9.74022 5.87865 9.64646 5.78489C9.55269 5.69112 9.50001 5.56394 9.50001 5.43133V1.66667ZM10 8.16667C10.1326 8.16667 10.2598 8.21935 10.3536 8.31311C10.4473 8.40688 10.5 8.53406 10.5 8.66667C10.5 8.79927 10.4473 8.92645 10.3536 9.02022C10.2598 9.11399 10.1326 9.16667 10 9.16667H6.00001C5.8674 9.16667 5.74023 9.11399 5.64646 9.02022C5.55269 8.92645 5.50001 8.79927 5.50001 8.66667C5.50001 8.53406 5.55269 8.40688 5.64646 8.31311C5.74023 8.21935 5.8674 8.16667 6.00001 8.16667H10ZM10 10.8333C10.1326 10.8333 10.2598 10.886 10.3536 10.9798C10.4473 11.0735 10.5 11.2007 10.5 11.3333C10.5 11.4659 10.4473 11.5931 10.3536 11.6869C10.2598 11.7807 10.1326 11.8333 10 11.8333H6.00001C5.8674 11.8333 5.74023 11.7807 5.64646 11.6869C5.55269 11.5931 5.50001 11.4659 5.50001 11.3333C5.50001 11.2007 5.55269 11.0735 5.64646 10.9798C5.74023 10.886 5.8674 10.8333 6.00001 10.8333H10Z" fill="#FAFEFF"/>
<path d="M10.5 1.88266C10.5 1.75999 10.6287 1.68199 10.724 1.75866C10.8047 1.82399 10.8773 1.89999 10.9393 1.98666L12.948 4.78466C12.9933 4.84866 12.944 4.93132 12.8653 4.93132H10.6667C10.6225 4.93132 10.5801 4.91377 10.5488 4.88251C10.5176 4.85125 10.5 4.80886 10.5 4.76466V1.88266Z" fill="#FAFEFF"/>
</svg>
