<svg width="12" height="12" viewBox="0 0 12 12" fill="none" xmlns="http://www.w3.org/2000/svg">
<g clip-path="url(#clip0_399_4161)">
<path d="M11.0625 2.25H9V0.9375H8.25V2.25H3.75V0.9375H3V2.25H0.9375C0.788369 2.25017 0.645396 2.30949 0.539944 2.41494C0.434493 2.5204 0.375174 2.66337 0.375 2.8125V10.6875C0.375174 10.8366 0.434493 10.9796 0.539944 11.0851C0.645396 11.1905 0.788369 11.2498 0.9375 11.25H11.0625C11.2116 11.2498 11.3546 11.1905 11.4601 11.0851C11.5655 10.9796 11.6248 10.8366 11.625 10.6875V2.8125C11.6248 2.66337 11.5655 2.5204 11.4601 2.41494C11.3546 2.30949 11.2116 2.25017 11.0625 2.25ZM10.875 10.5H1.125V3H3V3.9375H3.75V3H8.25V3.9375H9V3H10.875V10.5Z" fill="black"/>
<path d="M2.625 5.25H3.375V6H2.625V5.25ZM4.6875 5.25H5.4375V6H4.6875V5.25ZM6.5625 5.25H7.3125V6H6.5625V5.25ZM8.625 5.25H9.375V6H8.625V5.25ZM2.625 6.9375H3.375V7.6875H2.625V6.9375ZM4.6875 6.9375H5.4375V7.6875H4.6875V6.9375ZM6.5625 6.9375H7.3125V7.6875H6.5625V6.9375ZM8.625 6.9375H9.375V7.6875H8.625V6.9375ZM2.625 8.625H3.375V9.375H2.625V8.625ZM4.6875 8.625H5.4375V9.375H4.6875V8.625ZM6.5625 8.625H7.3125V9.375H6.5625V8.625ZM8.625 8.625H9.375V9.375H8.625V8.625Z" fill="black"/>
</g>
<defs>
<clipPath id="clip0_399_4161">
<rect width="12" height="12" fill="white"/>
</clipPath>
</defs>
</svg>
