<svg width="12" height="14" viewBox="0 0 12 14" fill="none" xmlns="http://www.w3.org/2000/svg">
<path d="M3.42857 0.39563C3.90268 0.39563 4.28571 0.752745 4.28571 1.19477V1.99391H7.71429V1.19477C7.71429 0.752745 8.09732 0.39563 8.57143 0.39563C9.04554 0.39563 9.42857 0.752745 9.42857 1.19477V1.99391H10.7143C11.4241 1.99391 12 2.53083 12 3.19262V4.39133H0V3.19262C0 2.53083 0.575893 1.99391 1.28571 1.99391H2.57143V1.19477C2.57143 0.752745 2.95446 0.39563 3.42857 0.39563ZM0 5.19047H12V11.9832C12 12.6449 11.4241 13.1819 10.7143 13.1819H1.28571C0.575893 13.1819 0 12.6449 0 11.9832V5.19047ZM1.71429 7.18832V7.98746C1.71429 8.20722 1.90714 8.38703 2.14286 8.38703H3C3.23571 8.38703 3.42857 8.20722 3.42857 7.98746V7.18832C3.42857 6.96855 3.23571 6.78875 3 6.78875H2.14286C1.90714 6.78875 1.71429 6.96855 1.71429 7.18832ZM5.14286 7.18832V7.98746C5.14286 8.20722 5.33571 8.38703 5.57143 8.38703H6.42857C6.66429 8.38703 6.85714 8.20722 6.85714 7.98746V7.18832C6.85714 6.96855 6.66429 6.78875 6.42857 6.78875H5.57143C5.33571 6.78875 5.14286 6.96855 5.14286 7.18832ZM9 6.78875C8.76429 6.78875 8.57143 6.96855 8.57143 7.18832V7.98746C8.57143 8.20722 8.76429 8.38703 9 8.38703H9.85714C10.0929 8.38703 10.2857 8.20722 10.2857 7.98746V7.18832C10.2857 6.96855 10.0929 6.78875 9.85714 6.78875H9ZM1.71429 10.3849V11.184C1.71429 11.4038 1.90714 11.5836 2.14286 11.5836H3C3.23571 11.5836 3.42857 11.4038 3.42857 11.184V10.3849C3.42857 10.1651 3.23571 9.98531 3 9.98531H2.14286C1.90714 9.98531 1.71429 10.1651 1.71429 10.3849ZM5.57143 9.98531C5.33571 9.98531 5.14286 10.1651 5.14286 10.3849V11.184C5.14286 11.4038 5.33571 11.5836 5.57143 11.5836H6.42857C6.66429 11.5836 6.85714 11.4038 6.85714 11.184V10.3849C6.85714 10.1651 6.66429 9.98531 6.42857 9.98531H5.57143ZM8.57143 10.3849V11.184C8.57143 11.4038 8.76429 11.5836 9 11.5836H9.85714C10.0929 11.5836 10.2857 11.4038 10.2857 11.184V10.3849C10.2857 10.1651 10.0929 9.98531 9.85714 9.98531H9C8.76429 9.98531 8.57143 10.1651 8.57143 10.3849Z" fill="#707070"/>
</svg>
