<svg width="22" height="21" viewBox="0 0 22 21" fill="none" xmlns="http://www.w3.org/2000/svg">
<path d="M4.35833 1.87206L4.25392 1.28156H3.65425H1.74749C1.71823 1.28156 1.68403 1.27046 1.64985 1.23364C1.61469 1.19576 1.58414 1.13324 1.58414 1.05016C1.58414 0.967076 1.61469 0.904559 1.64985 0.866676C1.68403 0.829855 1.71823 0.81876 1.74749 0.81876H4.38255C4.41883 0.81876 4.5162 0.854913 4.54254 0.99919C4.54258 0.999408 4.54262 0.999626 4.54266 0.999845L4.63019 1.49106L4.73525 2.08062H5.3341H20.698C20.9342 2.08062 21.2424 2.36701 21.1333 2.79004C21.1333 2.79039 21.1332 2.79073 21.1331 2.79108L19.1573 10.3603C19.1572 10.3605 19.1572 10.3606 19.1572 10.3607C19.0887 10.6213 18.8888 10.7455 18.7217 10.7455H7.12009H6.2683L6.4159 11.5844L6.74895 13.4772L6.85295 14.0683H7.45313H18.729C18.7582 14.0683 18.7925 14.0794 18.8266 14.1162C18.8618 14.1541 18.8923 14.2166 18.8923 14.2997C18.8923 14.3828 18.8618 14.4453 18.8266 14.4832C18.7925 14.52 18.7582 14.5311 18.729 14.5311H6.72483C6.68857 14.5311 6.59133 14.495 6.5649 14.351C6.56484 14.3507 6.56478 14.3504 6.56472 14.35L4.35833 1.87206ZM8.3521 18.4008C8.3521 19.1021 7.83606 19.5786 7.3104 19.5786C6.78474 19.5786 6.26869 19.1021 6.26869 18.4008C6.26869 17.6995 6.78474 17.223 7.3104 17.223C7.83606 17.223 8.3521 17.6995 8.3521 18.4008ZM17.8506 17.223C18.3763 17.223 18.8923 17.6995 18.8923 18.4008C18.8923 19.1021 18.3763 19.5786 17.8506 19.5786C17.325 19.5786 16.8089 19.1021 16.8089 18.4008C16.8089 17.6995 17.325 17.223 17.8506 17.223Z" stroke="#7FB741" stroke-width="1.43"/>
</svg>
