<svg width="20" height="20" viewBox="0 0 20 20" fill="none" xmlns="http://www.w3.org/2000/svg">
<path d="M10 12.5C10.663 12.5 11.2989 12.2366 11.7678 11.7678C12.2366 11.2989 12.5 10.663 12.5 10C12.5 9.33696 12.2366 8.70107 11.7678 8.23223C11.2989 7.76339 10.663 7.5 10 7.5C9.33696 7.5 8.70107 7.76339 8.23223 8.23223C7.76339 8.70107 7.5 9.33696 7.5 10C7.5 10.663 7.76339 11.2989 8.23223 11.7678C8.70107 12.2366 9.33696 12.5 10 12.5Z" fill="black"/>
<path d="M0 5C0 4.66848 0.131696 4.35054 0.366117 4.11612C0.600537 3.8817 0.918479 3.75 1.25 3.75H18.75C19.0815 3.75 19.3995 3.8817 19.6339 4.11612C19.8683 4.35054 20 4.66848 20 5V15C20 15.3315 19.8683 15.6495 19.6339 15.8839C19.3995 16.1183 19.0815 16.25 18.75 16.25H1.25C0.918479 16.25 0.600537 16.1183 0.366117 15.8839C0.131696 15.6495 0 15.3315 0 15V5ZM3.75 5C3.75 5.66304 3.48661 6.29893 3.01777 6.76777C2.54893 7.23661 1.91304 7.5 1.25 7.5V12.5C1.91304 12.5 2.54893 12.7634 3.01777 13.2322C3.48661 13.7011 3.75 14.337 3.75 15H16.25C16.25 14.337 16.5134 13.7011 16.9822 13.2322C17.4511 12.7634 18.087 12.5 18.75 12.5V7.5C18.087 7.5 17.4511 7.23661 16.9822 6.76777C16.5134 6.29893 16.25 5.66304 16.25 5H3.75Z" fill="black"/>
</svg>
