<svg width="21" height="21" viewBox="0 0 21 21" fill="none" xmlns="http://www.w3.org/2000/svg">
<path d="M3.48915 1.97512L3.38458 1.38484H2.78511H0.878353C0.848618 1.38484 0.814292 1.37355 0.780262 1.33696C0.745265 1.29932 0.715 1.2374 0.715 1.15521C0.715 1.07302 0.745265 1.0111 0.780262 0.973459C0.814293 0.93686 0.848618 0.925571 0.878353 0.925571H3.51341C3.5507 0.925571 3.64737 0.962222 3.67345 1.10483C3.67349 1.10504 3.67352 1.10525 3.67356 1.10545L3.76109 1.59575L3.8663 2.18509H4.46496H19.8288C20.0668 2.18509 20.3732 2.47192 20.264 2.89224L18.2882 10.4474C18.2201 10.7066 18.0207 10.8312 17.8525 10.8312H6.25095H5.39888L5.5468 11.6703L5.87985 13.5596L5.984 14.1505H6.58399H17.8598C17.8896 14.1505 17.9239 14.1618 17.9579 14.1984C17.9929 14.236 18.0232 14.2979 18.0232 14.3801C18.0232 14.4623 17.9929 14.5242 17.9579 14.5619C17.9239 14.5985 17.8896 14.6098 17.8598 14.6098H5.85569C5.81843 14.6098 5.72187 14.5732 5.69571 14.4308C5.69565 14.4305 5.69559 14.4302 5.69554 14.4299L3.48915 1.97512ZM7.48296 18.4735C7.48296 19.1716 6.96812 19.6478 6.44126 19.6478C5.91439 19.6478 5.39955 19.1716 5.39955 18.4735C5.39955 17.7755 5.91439 17.2993 6.44126 17.2993C6.96812 17.2993 7.48296 17.7755 7.48296 18.4735ZM16.9815 17.2993C17.5084 17.2993 18.0232 17.7755 18.0232 18.4735C18.0232 19.1716 17.5084 19.6478 16.9815 19.6478C16.4546 19.6478 15.9398 19.1716 15.9398 18.4735C15.9398 17.7755 16.4546 17.2993 16.9815 17.2993Z" stroke="black" stroke-width="1.43"/>
</svg>
