<svg width="16" height="16" viewBox="0 0 16 16" fill="none" xmlns="http://www.w3.org/2000/svg">
<path d="M2.6305 0.731753L2.63962 0.785H2.12199H0.719681C0.717101 0.776378 0.715 0.764805 0.715 0.75C0.715 0.735195 0.717101 0.723622 0.719681 0.715H2.62633C2.62785 0.719503 2.62929 0.724909 2.63043 0.731307C2.63045 0.731455 2.63048 0.731604 2.6305 0.731753ZM4.00071 8.285L2.8838 1.715H3.40188H15.1077C15.1305 1.715 15.1769 1.72453 15.2256 1.79663C15.2752 1.87023 15.3022 1.98045 15.2728 2.09858C15.2728 2.09869 15.2728 2.0988 15.2727 2.09891L13.7675 8.09705C13.7264 8.25981 13.6251 8.285 13.6019 8.285H4.76263H4.00071ZM4.50786 11.2682L4.49881 11.215H5.01637H13.557C13.5596 11.2236 13.5617 11.2352 13.5617 11.25C13.5617 11.2648 13.5596 11.2764 13.557 11.285H4.51204C4.51054 11.2806 4.50912 11.2753 4.50799 11.269C4.50795 11.2687 4.5079 11.2685 4.50786 11.2682ZM5.53107 14.5C5.53107 15.012 5.17724 15.285 4.90762 15.285C4.63801 15.285 4.28418 15.012 4.28418 14.5C4.28418 13.988 4.63801 13.715 4.90762 13.715C5.17724 13.715 5.53107 13.988 5.53107 14.5ZM12.9383 13.715C13.2079 13.715 13.5617 13.988 13.5617 14.5C13.5617 15.012 13.2079 15.285 12.9383 15.285C12.6687 15.285 12.3148 15.012 12.3148 14.5C12.3148 13.988 12.6687 13.715 12.9383 13.715Z" stroke="white" stroke-width="1.43"/>
</svg>
