<svg width="21" height="21" viewBox="0 0 21 21" fill="none" xmlns="http://www.w3.org/2000/svg">
<path d="M16.1875 12.2588L16.1963 12.2491M6.5625 12.2588L6.57125 12.2491M3.5 15.75V8.75C3.5 8.28587 3.68437 7.84075 4.01256 7.51256C4.34075 7.18437 4.78587 7 5.25 7H17.5C17.9641 7 18.4092 7.18437 18.7374 7.51256C19.0656 7.84075 19.25 8.28587 19.25 8.75V15.75C19.25 16.2141 19.0656 16.6592 18.7374 16.9874C18.4092 17.3156 17.9641 17.5 17.5 17.5H5.25C4.78587 17.5 4.34075 17.3156 4.01256 16.9874C3.68437 16.6592 3.5 16.2141 3.5 15.75Z" stroke="black" stroke-width="1.3125" stroke-linecap="round" stroke-linejoin="round"/>
<path d="M3.5 14H2.625C2.16087 14 1.71575 13.8156 1.38756 13.4874C1.05937 13.1592 0.875 12.7141 0.875 12.25V5.25C0.875 4.78587 1.05937 4.34075 1.38756 4.01256C1.71575 3.68437 2.16087 3.5 2.625 3.5H14.875C15.3391 3.5 15.7842 3.68437 16.1124 4.01256C16.4406 4.34075 16.625 4.78587 16.625 5.25V7M11.375 14C10.9109 14 10.4658 13.8156 10.1376 13.4874C9.80937 13.1592 9.625 12.7141 9.625 12.25C9.625 11.7859 9.80937 11.3408 10.1376 11.0126C10.4658 10.6844 10.9109 10.5 11.375 10.5C11.8391 10.5 12.2842 10.6844 12.6124 11.0126C12.9406 11.3408 13.125 11.7859 13.125 12.25C13.125 12.7141 12.9406 13.1592 12.6124 13.4874C12.2842 13.8156 11.8391 14 11.375 14Z" stroke="black" stroke-width="1.3125" stroke-linecap="round" stroke-linejoin="round"/>
</svg>
