<svg width="16" height="16" viewBox="0 0 16 16" fill="none" xmlns="http://www.w3.org/2000/svg">
<path d="M2.66665 12.6666L2.04665 12.42C2.00235 12.5314 1.98894 12.6528 2.00784 12.7712C2.02674 12.8897 2.07724 13.0008 2.15403 13.093C2.23082 13.1851 2.33104 13.2548 2.44414 13.2948C2.55724 13.3347 2.67902 13.3434 2.79665 13.32L2.66665 12.6666ZM5.80398 12.0426L6.11998 11.4553L5.90865 11.342L5.67398 11.3886L5.80398 12.0426ZM3.74932 9.94463L4.36931 10.1913L4.47798 9.91529L4.34731 9.64929L3.74932 9.94463ZM12.6666 7.99996C12.6666 10.164 10.7646 12 8.31332 12V13.3333C11.4073 13.3333 14 10.9906 14 7.99996H12.6666ZM3.96065 7.99996C3.96065 5.83596 5.86331 3.99996 8.31398 3.99996V2.66663C5.21998 2.66663 2.62665 5.00929 2.62665 7.99996H3.96065ZM8.31398 3.99996C10.7646 3.99996 12.6666 5.83596 12.6666 7.99996H14C14 5.00929 11.408 2.66663 8.31398 2.66663V3.99996ZM8.31332 12C7.50998 12 6.76198 11.8 6.11998 11.4553L5.48798 12.6293C6.35721 13.0942 7.32757 13.3361 8.31332 13.3333V12ZM2.79665 13.32L5.93398 12.696L5.67398 11.3886L2.53665 12.0126L2.79665 13.3206V13.32ZM4.34731 9.64929C4.0927 9.13676 3.9608 8.57226 3.96065 7.99996H2.62665C2.62665 8.79996 2.81465 9.55863 3.15065 10.24L4.34731 9.64929ZM3.12998 9.69796L2.04665 12.4206L3.28531 12.9126L4.36798 10.1906L3.12931 9.69796H3.12998Z" fill="black" fill-opacity="0.6"/>
<path d="M5.99992 8.66659C6.36811 8.66659 6.66659 8.36811 6.66659 7.99992C6.66659 7.63173 6.36811 7.33325 5.99992 7.33325C5.63173 7.33325 5.33325 7.63173 5.33325 7.99992C5.33325 8.36811 5.63173 8.66659 5.99992 8.66659Z" fill="black" fill-opacity="0.6"/>
<path d="M8.33341 8.66659C8.7016 8.66659 9.00008 8.36811 9.00008 7.99992C9.00008 7.63173 8.7016 7.33325 8.33341 7.33325C7.96522 7.33325 7.66675 7.63173 7.66675 7.99992C7.66675 8.36811 7.96522 8.66659 8.33341 8.66659Z" fill="black" fill-opacity="0.6"/>
<path d="M10.6667 8.66659C11.0349 8.66659 11.3333 8.36811 11.3333 7.99992C11.3333 7.63173 11.0349 7.33325 10.6667 7.33325C10.2985 7.33325 10 7.63173 10 7.99992C10 8.36811 10.2985 8.66659 10.6667 8.66659Z" fill="black" fill-opacity="0.6"/>
</svg>
