<svg width="11" height="11" viewBox="0 0 11 11" fill="none" xmlns="http://www.w3.org/2000/svg">
<path d="M9.92941 2.14151C10.3097 1.76126 10.3097 1.14372 9.92941 0.763464C9.54916 0.383207 8.93162 0.383207 8.55136 0.763464L5.34808 3.96979L2.14176 0.766506C1.7615 0.386249 1.14396 0.386249 0.763708 0.766506C0.383452 1.14676 0.383452 1.7643 0.763708 2.14456L3.97003 5.34784L0.76675 8.55416C0.386494 8.93441 0.386494 9.55195 0.76675 9.93221C1.14701 10.3125 1.76454 10.3125 2.1448 9.93221L5.34808 6.72589L8.5544 9.92917C8.93466 10.3094 9.5522 10.3094 9.93245 9.92917C10.3127 9.54891 10.3127 8.93137 9.93245 8.55112L6.72613 5.34784L9.92941 2.14151Z" fill="#ACB5BA"/>
</svg>
