<svg width="30" height="30" viewBox="0 0 23 23" fill="none" xmlns="http://www.w3.org/2000/svg">
<path d="M7.40729 1.10604C7.06141 0.270532 6.14953 -0.174175 5.27809 0.0639007L1.32514 1.14198C0.543531 1.35759 0 2.06733 0 2.87589C0 13.9891 9.01093 23 20.1241 23C20.9327 23 21.6424 22.4565 21.858 21.6749L22.9361 17.7219C23.1742 16.8505 22.7295 15.9386 21.894 15.5927L17.5816 13.7959C16.8495 13.4905 16.0005 13.7016 15.5019 14.317L13.6871 16.5315C10.5247 15.0357 7.9643 12.4753 6.46847 9.31291L8.68302 7.50264C9.29842 6.99953 9.50954 6.15504 9.20409 5.42284L7.40729 1.11053V1.10604Z" fill="#C6CACA"/>
</svg>
