<svg width="30" height="29" viewBox="0 0 30 29" fill="none" xmlns="http://www.w3.org/2000/svg">
<path d="M0 7C0 3.13401 3.13401 0 7 0H23C26.866 0 30 3.13401 30 7V22C30 25.866 26.866 29 23 29H7C3.13401 29 0 25.866 0 22V7Z" fill="#30B0C5"/>
<path d="M10.4073 4.10604C10.0614 3.27053 9.14953 2.82583 8.27809 3.0639L4.32514 4.14198C3.54353 4.35759 3 5.06733 3 5.87589C3 16.9891 12.0109 26 23.1241 26C23.9327 26 24.6424 25.4565 24.858 24.6749L25.9361 20.7219C26.1742 19.8505 25.7295 18.9386 24.894 18.5927L20.5816 16.7959C19.8495 16.4905 19.0005 16.7016 18.5019 17.317L16.6871 19.5315C13.5247 18.0357 10.9643 15.4753 9.46847 12.3129L11.683 10.5026C12.2984 9.99953 12.5095 9.15504 12.2041 8.42284L10.4073 4.11053V4.10604Z" fill="white"/>
</svg>
