<svg width="16" height="16" viewBox="0 0 16 16" fill="none" xmlns="http://www.w3.org/2000/svg">
<g clip-path="url(#clip0_834_3357)">
<path fill-rule="evenodd" clip-rule="evenodd" d="M6.26956 1.93138C6.73316 1.53634 7.31803 1.31191 7.92689 1.29541C8.53575 1.27892 9.13191 1.47135 9.61622 1.84071L9.72956 1.93138L9.98022 2.14471C10.1627 2.30047 10.3838 2.40411 10.6202 2.44471L10.7389 2.45938L11.0676 2.48605C11.6764 2.53463 12.2501 2.79074 12.6928 3.21157C13.1355 3.6324 13.4203 4.19243 13.4996 4.79805L13.5136 4.93138L13.5402 5.26071C13.5591 5.49959 13.642 5.72897 13.7802 5.92471L13.8536 6.01938L14.0682 6.27005C14.4633 6.73365 14.6877 7.31852 14.7042 7.92738C14.7207 8.53624 14.5283 9.1324 14.1589 9.61671L14.0682 9.73005L13.8542 9.98071C13.6985 10.1632 13.5948 10.3843 13.5542 10.6207L13.5396 10.7394L13.5136 11.068C13.465 11.6769 13.2089 12.2506 12.788 12.6933C12.3672 13.136 11.8072 13.4207 11.2016 13.5L11.0676 13.514L10.7389 13.5407C10.5 13.5596 10.2706 13.6425 10.0749 13.7807L9.98022 13.8547L9.72889 14.068C9.26537 14.4632 8.68054 14.6877 8.07168 14.7044C7.46281 14.721 6.86661 14.5286 6.38222 14.1594L6.26956 14.0687L6.01889 13.8547C5.83643 13.699 5.61533 13.5953 5.37889 13.5547L5.26022 13.5407L4.93156 13.514C4.32271 13.4655 3.74899 13.2094 3.30632 12.7885C2.86365 12.3677 2.57886 11.8077 2.49956 11.202L2.48556 11.0687L2.45889 10.7394C2.44001 10.5005 2.3571 10.2711 2.21889 10.0754L2.14489 9.98071L1.93089 9.72938C1.53585 9.26578 1.31142 8.68091 1.29492 8.07205C1.27843 7.46319 1.47086 6.86702 1.84022 6.38271L1.93089 6.27005L2.14422 6.01938C2.29998 5.83692 2.40362 5.61582 2.44422 5.37938L2.45889 5.26071L2.48556 4.93205C2.53414 4.3232 2.79025 3.74948 3.21108 3.30681C3.63191 2.86414 4.19195 2.57935 4.79756 2.50005L4.93089 2.48605L5.26022 2.45938C5.4991 2.4405 5.72848 2.35759 5.92422 2.21938L6.01889 2.14538L6.26956 1.93138ZM9.66622 8.66671C9.40101 8.66671 9.14665 8.77207 8.95912 8.95961C8.77158 9.14714 8.66622 9.4015 8.66622 9.66671C8.66622 9.93193 8.77158 10.1863 8.95912 10.3738C9.14665 10.5614 9.40101 10.6667 9.66622 10.6667C9.93144 10.6667 10.1858 10.5614 10.3733 10.3738C10.5609 10.1863 10.6662 9.93193 10.6662 9.66671C10.6662 9.4015 10.5609 9.14714 10.3733 8.95961C10.1858 8.77207 9.93144 8.66671 9.66622 8.66671ZM9.52822 5.52871L5.52822 9.52871C5.46455 9.59021 5.41376 9.66377 5.37882 9.74511C5.34388 9.82645 5.32549 9.91393 5.32472 10.0024C5.32396 10.091 5.34082 10.1788 5.37434 10.2607C5.40786 10.3426 5.45737 10.417 5.51996 10.4796C5.58256 10.5422 5.65699 10.5917 5.73892 10.6253C5.82085 10.6588 5.90864 10.6756 5.99716 10.6749C6.08568 10.6741 6.17316 10.6557 6.25449 10.6208C6.33583 10.5858 6.40939 10.5351 6.47089 10.4714L10.4709 6.47138C10.5923 6.34564 10.6595 6.17724 10.658 6.00245C10.6565 5.82765 10.5864 5.66044 10.4628 5.53683C10.3392 5.41323 10.172 5.34312 9.99716 5.3416C9.82236 5.34008 9.65396 5.40727 9.52822 5.52871ZM6.33289 5.33338C6.06767 5.33338 5.81332 5.43874 5.62578 5.62627C5.43825 5.81381 5.33289 6.06816 5.33289 6.33338C5.33289 6.5986 5.43825 6.85295 5.62578 7.04049C5.81332 7.22802 6.06767 7.33338 6.33289 7.33338C6.59811 7.33338 6.85246 7.22802 7.04 7.04049C7.22753 6.85295 7.33289 6.5986 7.33289 6.33338C7.33289 6.06816 7.22753 5.81381 7.04 5.62627C6.85246 5.43874 6.59811 5.33338 6.33289 5.33338Z" fill="#1E66F4"/>
</g>
<defs>
<clipPath id="clip0_834_3357">
<rect width="16" height="16" fill="white"/>
</clipPath>
</defs>
</svg>
