<svg width="14" height="14" viewBox="0 0 14 14" fill="none" xmlns="http://www.w3.org/2000/svg">
<g clip-path="url(#clip0_834_2046)">
<path d="M10.0625 12.0627C10.593 12.0627 11.1018 11.852 11.4769 11.4769M10.0625 12.0627C9.53198 12.0627 9.02321 11.852 8.64809 11.4769M10.0625 12.0627V13.5625M11.4769 11.4769C11.852 11.1018 12.0627 10.593 12.0627 10.0625M11.4769 11.4769L12.5376 12.5376M12.0627 10.0625C12.0627 9.53198 11.852 9.02321 11.4769 8.64809M12.0627 10.0625H13.5625M11.4769 8.64809C11.1018 8.27297 10.593 8.06223 10.0625 8.06223M11.4769 8.64809L12.5376 7.5874M10.0625 8.06223C9.53198 8.06223 9.02321 8.27297 8.64809 8.64809M10.0625 8.06223V6.56248M8.64809 8.64809C8.27297 9.02321 8.06223 9.53198 8.06223 10.0625M8.64809 8.64809L7.5874 7.5874M8.06223 10.0625C8.06223 10.593 8.27297 11.1018 8.64809 11.4769M8.06223 10.0625H6.56248M8.64809 11.4769L7.5874 12.5376M9.7294 6.56248H10.3956M12.3019 7.35173L12.7732 7.82307M13.5625 9.7294V10.3956M12.7732 12.3019L12.3019 12.7732M10.3956 13.5625H9.7294M7.82307 12.7732L7.35173 12.3019M6.56248 10.3956V9.7294M7.35173 7.82307L7.82307 7.35173M5.01665 9.56665C4.50727 10.0362 3.83603 10.2905 3.14341 10.2764C2.45078 10.2623 1.79044 9.98091 1.30058 9.49105C0.810717 9.00119 0.529295 8.34085 0.515204 7.64822C0.501114 6.9556 0.755447 6.28436 1.22498 5.77498L5.77498 1.22498C6.28436 0.755447 6.9556 0.501114 7.64822 0.515204C8.34085 0.529295 9.00119 0.810717 9.49105 1.30058C9.98091 1.79044 10.2623 2.45078 10.2764 3.14341C10.2905 3.83603 10.0362 4.50727 9.56665 5.01665M3.4994 3.4994L6.49657 6.49657" stroke="#FF8205" stroke-width="1.3125" stroke-linecap="round" stroke-linejoin="round"/>
</g>
<defs>
<clipPath id="clip0_834_2046">
<rect width="14" height="14" fill="white"/>
</clipPath>
</defs>
</svg>
