<svg width="16" height="16" viewBox="0 0 16 16" fill="none" xmlns="http://www.w3.org/2000/svg">
<circle cx="8" cy="8" r="8" fill="#F4F3F3"/>
<path d="M12.9294 5.14151C13.3097 4.76126 13.3097 4.14372 12.9294 3.76346C12.5492 3.38321 11.9316 3.38321 11.5514 3.76346L8.34808 6.96979L5.14176 3.76651C4.7615 3.38625 4.14396 3.38625 3.76371 3.76651C3.38345 4.14676 3.38345 4.7643 3.76371 5.14456L6.97003 8.34784L3.76675 11.5542C3.38649 11.9344 3.38649 12.552 3.76675 12.9322C4.14701 13.3125 4.76454 13.3125 5.1448 12.9322L8.34808 9.72589L11.5544 12.9292C11.9347 13.3094 12.5522 13.3094 12.9325 12.9292C13.3127 12.5489 13.3127 11.9314 12.9325 11.5511L9.72613 8.34784L12.9294 5.14151Z" fill="#605E5E"/>
</svg>
