<svg width="21" height="21" viewBox="0 0 21 21" fill="none" xmlns="http://www.w3.org/2000/svg">
<path d="M14.0577 7.87064C14.1205 7.81014 14.1705 7.73775 14.2049 7.6577C14.2393 7.57765 14.2575 7.49154 14.2583 7.40441C14.2591 7.31727 14.2425 7.23085 14.2096 7.15018C14.1766 7.06952 14.1279 6.99622 14.0663 6.93458C14.0047 6.87293 13.9315 6.82417 13.8508 6.79113C13.7702 6.7581 13.6838 6.74145 13.5967 6.74217C13.5095 6.74289 13.4234 6.76095 13.3433 6.7953C13.2633 6.82966 13.1908 6.87962 13.1302 6.94227L10.5 9.57164L7.87062 6.94227C7.81054 6.87779 7.73809 6.82608 7.65759 6.79021C7.57709 6.75434 7.49019 6.73506 7.40208 6.7335C7.31396 6.73195 7.22644 6.74816 7.14472 6.78116C7.06301 6.81417 6.98878 6.86329 6.92646 6.92561C6.86415 6.98793 6.81502 7.06216 6.78202 7.14387C6.74901 7.22558 6.7328 7.31311 6.73436 7.40123C6.73591 7.48934 6.7552 7.57624 6.79106 7.65674C6.82693 7.73724 6.87865 7.80969 6.94312 7.86977L9.57075 10.5L6.94137 13.1294C6.82545 13.2538 6.76234 13.4183 6.76534 13.5884C6.76834 13.7584 6.83722 13.9206 6.95745 14.0408C7.07769 14.161 7.2399 14.2299 7.40992 14.2329C7.57993 14.2359 7.74447 14.1728 7.86887 14.0569L10.5 11.4275L13.1294 14.0578C13.2538 14.1737 13.4183 14.2368 13.5883 14.2338C13.7583 14.2308 13.9206 14.1619 14.0408 14.0417C14.161 13.9215 14.2299 13.7592 14.2329 13.5892C14.2359 13.4192 14.1728 13.2547 14.0569 13.1303L11.4292 10.5L14.0577 7.87064Z" fill="#4F4C4C"/>
</svg>
