<svg width="14" height="14" viewBox="0 0 14 14" fill="none" xmlns="http://www.w3.org/2000/svg">
<path d="M9.1875 7.58337C9.1875 7.46734 9.14141 7.35606 9.05936 7.27402C8.97731 7.19197 8.86603 7.14587 8.75 7.14587H5.25C5.13397 7.14587 5.02269 7.19197 4.94064 7.27402C4.85859 7.35606 4.8125 7.46734 4.8125 7.58337C4.8125 7.69941 4.85859 7.81069 4.94064 7.89273C5.02269 7.97478 5.13397 8.02087 5.25 8.02087H8.75C8.86603 8.02087 8.97731 7.97478 9.05936 7.89273C9.14141 7.81069 9.1875 7.69941 9.1875 7.58337ZM9.1875 9.91671C9.1875 9.80068 9.14141 9.68939 9.05936 9.60735C8.97731 9.5253 8.86603 9.47921 8.75 9.47921H5.25C5.13397 9.47921 5.02269 9.5253 4.94064 9.60735C4.85859 9.68939 4.8125 9.80068 4.8125 9.91671C4.8125 10.0327 4.85859 10.144 4.94064 10.2261C5.02269 10.3081 5.13397 10.3542 5.25 10.3542H8.75C8.86603 10.3542 8.97731 10.3081 9.05936 10.2261C9.14141 10.144 9.1875 10.0327 9.1875 9.91671Z" fill="#FF8206"/>
<path fill-rule="evenodd" clip-rule="evenodd" d="M4.08329 1.3125C3.65784 1.3125 3.24982 1.48151 2.94898 1.78235C2.64814 2.08319 2.47913 2.49122 2.47913 2.91667V11.0833C2.47913 11.5088 2.64814 11.9168 2.94898 12.2177C3.24982 12.5185 3.65784 12.6875 4.08329 12.6875H9.91663C10.3421 12.6875 10.7501 12.5185 11.0509 12.2177C11.3518 11.9168 11.5208 11.5088 11.5208 11.0833V4.648C11.5208 4.42575 11.4485 4.20992 11.3143 4.03258L9.56546 1.71792C9.47031 1.59198 9.34724 1.48983 9.20595 1.41949C9.06465 1.34914 8.90897 1.31252 8.75113 1.3125H4.08329ZM3.35413 2.91667C3.35413 2.51417 3.68079 2.1875 4.08329 2.1875H8.31246V4.75242C8.31246 4.99392 8.50846 5.18992 8.74996 5.18992H10.6458V11.0833C10.6458 11.4858 10.3191 11.8125 9.91663 11.8125H4.08329C3.68079 11.8125 3.35413 11.4858 3.35413 11.0833V2.91667Z" fill="#FF8206"/>
</svg>
