<svg width="14" height="14" viewBox="0 0 14 14" fill="none" xmlns="http://www.w3.org/2000/svg">
<path fill-rule="evenodd" clip-rule="evenodd" d="M5.6964 1.74865C5.86054 1.56534 6.06149 1.4187 6.28614 1.3183C6.51079 1.21791 6.75408 1.16602 7.00015 1.16602C7.24621 1.16602 7.4895 1.21791 7.71415 1.3183C7.9388 1.4187 8.13976 1.56534 8.3039 1.74865L8.71223 2.20482C8.77058 2.2701 8.84289 2.3214 8.92377 2.35493C9.00466 2.38846 9.09205 2.40334 9.17948 2.39849L9.79198 2.36465C10.0376 2.35116 10.2833 2.3896 10.513 2.47747C10.7428 2.56533 10.9514 2.70065 11.1254 2.87458C11.2993 3.04852 11.4346 3.25717 11.5225 3.48692C11.6104 3.71668 11.6488 3.96237 11.6353 4.20799L11.6015 4.82049C11.5967 4.90781 11.6116 4.9951 11.6452 5.07588C11.6787 5.15665 11.7299 5.22886 11.7951 5.28715L12.2519 5.69549C12.4353 5.85963 12.582 6.06062 12.6825 6.28532C12.7829 6.51002 12.8349 6.75339 12.8349 6.99953C12.8349 7.24566 12.7829 7.48903 12.6825 7.71374C12.582 7.93844 12.4353 8.13943 12.2519 8.30357L11.7951 8.7119C11.7299 8.77026 11.6786 8.84256 11.645 8.92345C11.6115 9.00433 11.5966 9.09173 11.6015 9.17915L11.6353 9.79165C11.6488 10.0373 11.6104 10.283 11.5225 10.5127C11.4346 10.7425 11.2993 10.9511 11.1254 11.1251C10.9514 11.299 10.7428 11.4343 10.513 11.5222C10.2833 11.61 10.0376 11.6485 9.79198 11.635L9.17948 11.6012C9.09215 11.5964 9.00487 11.6113 8.92409 11.6448C8.84331 11.6784 8.7711 11.7296 8.71281 11.7948L8.30448 12.2516C8.14034 12.435 7.93935 12.5817 7.71464 12.6822C7.48994 12.7826 7.24657 12.8345 7.00044 12.8345C6.7543 12.8345 6.51093 12.7826 6.28623 12.6822C6.06153 12.5817 5.86054 12.435 5.6964 12.2516L5.28806 11.7948C5.22971 11.7295 5.15741 11.6782 5.07652 11.6447C4.99563 11.6112 4.90824 11.5963 4.82081 11.6012L4.20831 11.635C3.9627 11.6485 3.717 11.61 3.48725 11.5222C3.25749 11.4343 3.04884 11.299 2.87491 11.1251C2.70097 10.9511 2.56566 10.7425 2.4778 10.5127C2.38993 10.283 2.35149 10.0373 2.36498 9.79165L2.39881 9.17915C2.40358 9.09182 2.38865 9.00454 2.35513 8.92376C2.3216 8.84299 2.27034 8.77078 2.20515 8.71249L1.74898 8.30415C1.56557 8.14001 1.41884 7.93902 1.31839 7.71432C1.21794 7.48961 1.16602 7.24625 1.16602 7.00011C1.16602 6.75397 1.21794 6.51061 1.31839 6.2859C1.41884 6.0612 1.56557 5.86021 1.74898 5.69607L2.20515 5.28774C2.27042 5.22938 2.32173 5.15708 2.35526 5.07619C2.38878 4.99531 2.40367 4.90791 2.39881 4.82049L2.36498 4.20799C2.35149 3.96237 2.38993 3.71668 2.4778 3.48692C2.56566 3.25717 2.70097 3.04852 2.87491 2.87458C3.04884 2.70065 3.25749 2.56533 3.48725 2.47747C3.717 2.3896 3.9627 2.35116 4.20831 2.36465L4.82081 2.39849C4.90814 2.40325 4.99542 2.38832 5.0762 2.3548C5.15698 2.32128 5.22919 2.27002 5.28748 2.20482L5.69581 1.74865H5.6964ZM9.16256 4.8374C9.27192 4.94679 9.33335 5.09514 9.33335 5.24982C9.33335 5.4045 9.27192 5.55285 9.16256 5.66224L5.66256 9.16224C5.55254 9.26849 5.40519 9.32729 5.25224 9.32596C5.0993 9.32463 4.95299 9.26328 4.84483 9.15513C4.73668 9.04698 4.67533 8.90067 4.674 8.74772C4.67267 8.59477 4.73147 8.44742 4.83773 8.3374L8.33773 4.8374C8.44712 4.72804 8.59547 4.66661 8.75015 4.66661C8.90483 4.66661 9.05317 4.72804 9.16256 4.8374ZM5.54181 4.66649C5.30975 4.66649 5.08719 4.75867 4.92309 4.92277C4.759 5.08686 4.66681 5.30942 4.66681 5.54149V5.54732C4.66681 5.77938 4.759 6.00194 4.92309 6.16604C5.08719 6.33013 5.30975 6.42232 5.54181 6.42232H5.54765C5.77971 6.42232 6.00227 6.33013 6.16636 6.16604C6.33046 6.00194 6.42265 5.77938 6.42265 5.54732V5.54149C6.42265 5.30942 6.33046 5.08686 6.16636 4.92277C6.00227 4.75867 5.77971 4.66649 5.54765 4.66649H5.54181ZM8.45848 7.58315C8.22642 7.58315 8.00385 7.67534 7.83976 7.83943C7.67567 8.00353 7.58348 8.22609 7.58348 8.45815V8.46399C7.58348 8.69605 7.67567 8.91861 7.83976 9.0827C8.00385 9.2468 8.22642 9.33899 8.45848 9.33899H8.46431C8.69638 9.33899 8.91894 9.2468 9.08303 9.0827C9.24713 8.91861 9.33931 8.69605 9.33931 8.46399V8.45815C9.33931 8.22609 9.24713 8.00353 9.08303 7.83943C8.91894 7.67534 8.69638 7.58315 8.46431 7.58315H8.45848Z" fill="#80B742"/>
</svg>
