<svg width="12" height="12" viewBox="0 0 12 12" fill="none" xmlns="http://www.w3.org/2000/svg">
<path d="M2.5 9.5H3.2L7.5125 5.1875L6.8125 4.4875L2.5 8.8V9.5ZM9.65 4.4625L7.525 2.3625L8.225 1.6625C8.41667 1.47083 8.65217 1.375 8.9315 1.375C9.21083 1.375 9.44617 1.47083 9.6375 1.6625L10.3375 2.3625C10.5292 2.55417 10.6292 2.7855 10.6375 3.0565C10.6458 3.3275 10.5542 3.55867 10.3625 3.75L9.65 4.4625ZM8.925 5.2L3.625 10.5H1.5V8.375L6.8 3.075L8.925 5.2ZM7.1625 4.8375L6.8125 4.4875L7.5125 5.1875L7.1625 4.8375Z" fill="#4D4C4C"/>
</svg>
