<svg width="40" height="40" viewBox="0 0 40 40" fill="none" xmlns="http://www.w3.org/2000/svg">
<circle cx="20" cy="20" r="19.5" fill="white" stroke="#30B0C5"/>
<circle cx="20" cy="20" r="17" fill="#30B0C5"/>
<path d="M26.7497 8.61131C26.7497 8.45108 26.686 8.2974 26.5727 8.1841C26.4594 8.0708 26.3057 8.00714 26.1455 8.00714H23.1247C21.6035 7.93137 20.1142 8.46074 18.9822 9.4796C17.8501 10.4984 17.1673 11.924 17.083 13.4446V16.7071H14.0622C13.9019 16.7071 13.7483 16.7708 13.635 16.8841C13.5217 16.9974 13.458 17.1511 13.458 17.3113V20.453C13.458 20.6132 13.5217 20.7669 13.635 20.8802C13.7483 20.9935 13.9019 21.0571 14.0622 21.0571H17.083V29.153C17.083 29.3132 17.1467 29.4669 17.26 29.5802C17.3733 29.6935 17.5269 29.7571 17.6872 29.7571H21.3122C21.4724 29.7571 21.6261 29.6935 21.7394 29.5802C21.8527 29.4669 21.9163 29.3132 21.9163 29.153V21.0571H25.0822C25.2165 21.0591 25.3477 21.0162 25.4549 20.9352C25.5622 20.8542 25.6393 20.7398 25.6743 20.6101L26.5443 17.4684C26.5683 17.3791 26.5715 17.2855 26.5537 17.1948C26.5359 17.1041 26.4975 17.0187 26.4414 16.9452C26.3854 16.8716 26.3133 16.8119 26.2305 16.7707C26.1478 16.7294 26.0567 16.7077 25.9643 16.7071H21.9163V13.4446C21.9464 13.1456 22.0869 12.8684 22.3103 12.6673C22.5337 12.4662 22.8241 12.3556 23.1247 12.3571H26.1455C26.3057 12.3571 26.4594 12.2935 26.5727 12.1802C26.686 12.0669 26.7497 11.9132 26.7497 11.753V8.61131Z" fill="white"/>
</svg>
