<svg width="30" height="30" viewBox="0 0 30 29" fill="none" xmlns="http://www.w3.org/2000/svg">
<rect width="30" height="29" rx="7" fill="#30B0C5"/>
<path d="M15.5 14C17.0913 14 18.6174 13.3679 19.7426 12.2426C20.8679 11.1174 21.5 9.5913 21.5 8C21.5 6.4087 20.8679 4.88258 19.7426 3.75736C18.6174 2.63214 17.0913 2 15.5 2C13.9087 2 12.3826 2.63214 11.2574 3.75736C10.1321 4.88258 9.5 6.4087 9.5 8C9.5 9.5913 10.1321 11.1174 11.2574 12.2426C12.3826 13.3679 13.9087 14 15.5 14ZM11 16.5875C7.53125 17.6047 5 20.8109 5 24.6078C5 25.3766 5.62344 26 6.39219 26H24.6078C25.3766 26 26 25.3766 26 24.6078C26 20.8109 23.4688 17.6047 20 16.5875V18.9688C21.2938 19.3016 22.25 20.4781 22.25 21.875V23.75C22.25 24.1625 21.9125 24.5 21.5 24.5H20.75C20.3375 24.5 20 24.1625 20 23.75C20 23.3375 20.3375 23 20.75 23V21.875C20.75 21.0453 20.0797 20.375 19.25 20.375C18.4203 20.375 17.75 21.0453 17.75 21.875V23C18.1625 23 18.5 23.3375 18.5 23.75C18.5 24.1625 18.1625 24.5 17.75 24.5H17C16.5875 24.5 16.25 24.1625 16.25 23.75V21.875C16.25 20.4781 17.2063 19.3016 18.5 18.9688V16.2922C18.2188 16.2641 17.9328 16.25 17.6422 16.25H13.3578C13.0672 16.25 12.7812 16.2641 12.5 16.2922V19.3578C13.5828 19.6812 14.375 20.6844 14.375 21.875C14.375 23.3234 13.1984 24.5 11.75 24.5C10.3016 24.5 9.125 23.3234 9.125 21.875C9.125 20.6844 9.91719 19.6812 11 19.3578V16.5875ZM11.75 23C12.0484 23 12.3345 22.8815 12.5455 22.6705C12.7565 22.4595 12.875 22.1734 12.875 21.875C12.875 21.5766 12.7565 21.2905 12.5455 21.0795C12.3345 20.8685 12.0484 20.75 11.75 20.75C11.4516 20.75 11.1655 20.8685 10.9545 21.0795C10.7435 21.2905 10.625 21.5766 10.625 21.875C10.625 22.1734 10.7435 22.4595 10.9545 22.6705C11.1655 22.8815 11.4516 23 11.75 23Z" fill="#FEFFFF"/>
</svg>
