<svg width="30" height="30" viewBox="0 0 21 24" fill="none" xmlns="http://www.w3.org/2000/svg">
<path d="M10.5 12C12.0913 12 13.6174 11.3679 14.7426 10.2426C15.8679 9.11742 16.5 7.5913 16.5 6C16.5 4.4087 15.8679 2.88258 14.7426 1.75736C13.6174 0.632141 12.0913 0 10.5 0C8.9087 0 7.38258 0.632141 6.25736 1.75736C5.13214 2.88258 4.5 4.4087 4.5 6C4.5 7.5913 5.13214 9.11742 6.25736 10.2426C7.38258 11.3679 8.9087 12 10.5 12ZM6 14.5875C2.53125 15.6047 0 18.8109 0 22.6078C0 23.3766 0.623438 24 1.39219 24H19.6078C20.3766 24 21 23.3766 21 22.6078C21 18.8109 18.4688 15.6047 15 14.5875V16.9688C16.2938 17.3016 17.25 18.4781 17.25 19.875V21.75C17.25 22.1625 16.9125 22.5 16.5 22.5H15.75C15.3375 22.5 15 22.1625 15 21.75C15 21.3375 15.3375 21 15.75 21V19.875C15.75 19.0453 15.0797 18.375 14.25 18.375C13.4203 18.375 12.75 19.0453 12.75 19.875V21C13.1625 21 13.5 21.3375 13.5 21.75C13.5 22.1625 13.1625 22.5 12.75 22.5H12C11.5875 22.5 11.25 22.1625 11.25 21.75V19.875C11.25 18.4781 12.2063 17.3016 13.5 16.9688V14.2922C13.2188 14.2641 12.9328 14.25 12.6422 14.25H8.35781C8.06719 14.25 7.78125 14.2641 7.5 14.2922V17.3578C8.58281 17.6812 9.375 18.6844 9.375 19.875C9.375 21.3234 8.19844 22.5 6.75 22.5C5.30156 22.5 4.125 21.3234 4.125 19.875C4.125 18.6844 4.91719 17.6812 6 17.3578V14.5875ZM6.75 21C7.04837 21 7.33452 20.8815 7.5455 20.6705C7.75647 20.4595 7.875 20.1734 7.875 19.875C7.875 19.5766 7.75647 19.2905 7.5455 19.0795C7.33452 18.8685 7.04837 18.75 6.75 18.75C6.45163 18.75 6.16548 18.8685 5.9545 19.0795C5.74353 19.2905 5.625 19.5766 5.625 19.875C5.625 20.1734 5.74353 20.4595 5.9545 20.6705C6.16548 20.8815 6.45163 21 6.75 21Z" fill="#C6CACA"/>
</svg>
