<svg width="14" height="14" viewBox="0 0 14 14" fill="none" xmlns="http://www.w3.org/2000/svg">
<path d="M5.13337 6.53335C4.51453 6.53335 3.92103 6.28752 3.48345 5.84993C3.04587 5.41235 2.80003 4.81885 2.80003 4.20002V2.33335C2.80003 2.20958 2.8492 2.09088 2.93672 2.00337C3.02423 1.91585 3.14293 1.86668 3.2667 1.86668H3.73337C3.85713 1.86668 3.97583 1.81752 4.06335 1.73C4.15087 1.64248 4.20003 1.52378 4.20003 1.40002C4.20003 1.27625 4.15087 1.15755 4.06335 1.07003C3.97583 0.982516 3.85713 0.93335 3.73337 0.93335H3.2667C2.8954 0.93335 2.5393 1.08085 2.27675 1.3434C2.0142 1.60595 1.8667 1.96205 1.8667 2.33335V4.20002C1.8673 4.72723 1.99586 5.24641 2.24134 5.71299C2.48682 6.17956 2.84188 6.57958 3.27603 6.87868C3.69315 7.24643 4.03143 7.69488 4.27045 8.19698C4.50946 8.69907 4.64426 9.24439 4.6667 9.80002C4.6667 10.6664 5.01086 11.4973 5.62348 12.1099C6.2361 12.7225 7.06699 13.0667 7.93337 13.0667C8.79974 13.0667 9.63063 12.7225 10.2432 12.1099C10.8559 11.4973 11.2 10.6664 11.2 9.80002V9.26802C11.6399 9.15443 12.0233 8.88431 12.2783 8.50828C12.5333 8.13225 12.6424 7.67613 12.5852 7.22542C12.5279 6.7747 12.3082 6.36034 11.9673 6.06C11.6264 5.75966 11.1877 5.59396 10.7334 5.59396C10.279 5.59396 9.84029 5.75966 9.49939 6.06C9.15849 6.36034 8.93882 6.7747 8.88158 7.22542C8.82433 7.67613 8.93343 8.13225 9.18842 8.50828C9.44341 8.88431 9.82679 9.15443 10.2667 9.26802V9.80002C10.2667 10.4189 10.0209 11.0123 9.58328 11.4499C9.1457 11.8875 8.5522 12.1333 7.93337 12.1333C7.31453 12.1333 6.72103 11.8875 6.28345 11.4499C5.84587 11.0123 5.60003 10.4189 5.60003 9.80002C5.62365 9.2437 5.75991 8.69796 6.00055 8.19583C6.24119 7.69369 6.58121 7.2456 7.00003 6.87868C7.43246 6.57854 7.78571 6.17807 8.02953 5.71156C8.27335 5.24505 8.40048 4.7264 8.40003 4.20002V2.33335C8.40003 1.96205 8.25253 1.60595 7.98998 1.3434C7.72743 1.08085 7.37134 0.93335 7.00003 0.93335H6.53337C6.4096 0.93335 6.2909 0.982516 6.20338 1.07003C6.11587 1.15755 6.0667 1.27625 6.0667 1.40002C6.0667 1.52378 6.11587 1.64248 6.20338 1.73C6.2909 1.81752 6.4096 1.86668 6.53337 1.86668H7.00003C7.1238 1.86668 7.2425 1.91585 7.33002 2.00337C7.41753 2.09088 7.4667 2.20958 7.4667 2.33335V4.20002C7.4667 4.50643 7.40635 4.80985 7.28908 5.09294C7.17182 5.37604 6.99995 5.63326 6.78328 5.84993C6.56661 6.0666 6.30939 6.23847 6.02629 6.35574C5.7432 6.473 5.43978 6.53335 5.13337 6.53335ZM10.7334 8.40002C10.4858 8.40002 10.2484 8.30168 10.0734 8.12665C9.89837 7.95161 9.80003 7.71422 9.80003 7.46668C9.80003 7.21915 9.89837 6.98175 10.0734 6.80672C10.2484 6.63168 10.4858 6.53335 10.7334 6.53335C10.9809 6.53335 11.2183 6.63168 11.3933 6.80672C11.5684 6.98175 11.6667 7.21915 11.6667 7.46668C11.6667 7.71422 11.5684 7.95161 11.3933 8.12665C11.2183 8.30168 10.9809 8.40002 10.7334 8.40002Z" fill="#FD850D"/>
</svg>
