<svg width="15" height="19" viewBox="0 0 15 19" fill="none" xmlns="http://www.w3.org/2000/svg">
<path d="M13.625 0.75V2.5H11.875V5.125C12.5712 5.125 13.2389 5.40156 13.7312 5.89384C14.2234 6.38613 14.5 7.05381 14.5 7.75V17.375C14.5 17.6071 14.4078 17.8296 14.2437 17.9937C14.0796 18.1578 13.8571 18.25 13.625 18.25H1.375C1.14294 18.25 0.920376 18.1578 0.756282 17.9937C0.592187 17.8296 0.5 17.6071 0.5 17.375V7.75C0.5 7.05381 0.776562 6.38613 1.26884 5.89384C1.76113 5.40156 2.42881 5.125 3.125 5.125V2.5H1.375V0.75H13.625ZM11.875 6.875H3.125C2.89294 6.875 2.67038 6.96719 2.50628 7.13128C2.34219 7.29538 2.25 7.51794 2.25 7.75V16.5H12.75V7.75C12.75 7.51794 12.6578 7.29538 12.4937 7.13128C12.3296 6.96719 12.1071 6.875 11.875 6.875ZM8.375 8.625V10.375H10.125V12.125H8.37412L8.375 13.875H6.625L6.62412 12.125H4.875V10.375H6.625V8.625H8.375ZM10.125 2.5H4.875V5.125H10.125V2.5Z" fill="#80B644"/>
</svg>
