<svg width="16" height="16" viewBox="0 0 16 16" fill="none" xmlns="http://www.w3.org/2000/svg">
<path d="M8.06634 12.3667L7.99967 12.4333L7.92634 12.3667C4.75967 9.49333 2.66634 7.59333 2.66634 5.66667C2.66634 4.33333 3.66634 3.33333 4.99967 3.33333C6.02634 3.33333 7.02634 4 7.37967 4.90667H8.61967C8.97301 4 9.97301 3.33333 10.9997 3.33333C12.333 3.33333 13.333 4.33333 13.333 5.66667C13.333 7.59333 11.2397 9.49333 8.06634 12.3667ZM10.9997 2C9.83967 2 8.72634 2.54 7.99967 3.38667C7.27301 2.54 6.15967 2 4.99967 2C2.94634 2 1.33301 3.60667 1.33301 5.66667C1.33301 8.18 3.59967 10.24 7.03301 13.3533L7.99967 14.2333L8.96634 13.3533C12.3997 10.24 14.6663 8.18 14.6663 5.66667C14.6663 3.60667 13.053 2 10.9997 2Z" fill="#34AEC3"/>
</svg>
