<svg width="21" height="21" viewBox="0 0 21 21" fill="none" xmlns="http://www.w3.org/2000/svg">
<path d="M14.6016 2.625C12.9076 2.625 11.4245 3.35344 10.5 4.58473C9.57551 3.35344 8.09238 2.625 6.39844 2.625C5.05003 2.62652 3.75728 3.16285 2.80382 4.11632C1.85035 5.06978 1.31402 6.36253 1.3125 7.71094C1.3125 13.4531 9.82652 18.101 10.1891 18.293C10.2847 18.3444 10.3915 18.3713 10.5 18.3713C10.6085 18.3713 10.7153 18.3444 10.8109 18.293C11.1735 18.101 19.6875 13.4531 19.6875 7.71094C19.686 6.36253 19.1497 5.06978 18.1962 4.11632C17.2427 3.16285 15.95 2.62652 14.6016 2.625ZM10.5 16.9641C9.00211 16.0913 2.625 12.1152 2.625 7.71094C2.6263 6.71056 3.02428 5.75153 3.73165 5.04415C4.43903 4.33678 5.39806 3.9388 6.39844 3.9375C7.99395 3.9375 9.33352 4.78734 9.89297 6.15234C9.94241 6.27271 10.0265 6.37566 10.1346 6.44811C10.2427 6.52056 10.3699 6.55924 10.5 6.55924C10.6301 6.55924 10.7573 6.52056 10.8654 6.44811C10.9735 6.37566 11.0576 6.27271 11.107 6.15234C11.6665 4.78488 13.0061 3.9375 14.6016 3.9375C15.6019 3.9388 16.561 4.33678 17.2683 5.04415C17.9757 5.75153 18.3737 6.71056 18.375 7.71094C18.375 12.1086 11.9963 16.0904 10.5 16.9641Z" fill="#383836"/>
</svg>
