<svg width="30" height="30" viewBox="0 0 21 21" fill="none" xmlns="http://www.w3.org/2000/svg">
<path d="M20.9945 10.4795C20.9945 11.2178 20.4476 11.7961 19.8277 11.7961H18.661L18.6865 18.3668C18.6865 18.4775 18.6792 18.5883 18.6683 18.699V19.3594C18.6683 20.2658 18.0156 21 17.2098 21H16.6264C16.5863 21 16.5462 21 16.5061 20.9959C16.455 21 16.404 21 16.353 21H15.168H14.2929C13.4871 21 12.8344 20.2658 12.8344 19.3594V18.375V15.75C12.8344 15.024 12.313 14.4375 11.6677 14.4375H9.33413C8.68876 14.4375 8.16736 15.024 8.16736 15.75V18.375V19.3594C8.16736 20.2658 7.5147 21 6.7089 21H5.83383H4.67071C4.61602 21 4.56133 20.9959 4.50663 20.9918C4.46288 20.9959 4.41913 21 4.37537 21H3.79199C2.98619 21 2.33353 20.2658 2.33353 19.3594V14.7656C2.33353 14.7287 2.33353 14.6877 2.33718 14.6508V11.7961H1.16677C0.51046 11.7961 0 11.2219 0 10.4795C0 10.1104 0.109384 9.78223 0.364614 9.49512L9.71333 0.328125C9.96856 0.0410156 10.2602 0 10.5155 0C10.7707 0 11.0624 0.0820312 11.2812 0.287109L20.5934 9.49512C20.8851 9.78223 21.031 10.1104 20.9945 10.4795Z" fill="#C6CACA"/>
</svg>
