<svg width="30" height="30" viewBox="0 0 30 29" fill="none" xmlns="http://www.w3.org/2000/svg">
<rect width="30" height="29" rx="7" fill="#30B0C5"/>
<path d="M25.9945 13.4795C25.9945 14.2178 25.4476 14.7961 24.8277 14.7961H23.661L23.6865 21.3668C23.6865 21.4775 23.6792 21.5883 23.6683 21.699V22.3594C23.6683 23.2658 23.0156 24 22.2098 24H21.6264C21.5863 24 21.5462 24 21.5061 23.9959C21.455 24 21.404 24 21.353 24H20.168H19.2929C18.4871 24 17.8344 23.2658 17.8344 22.3594V21.375V18.75C17.8344 18.024 17.313 17.4375 16.6677 17.4375H14.3341C13.6888 17.4375 13.1674 18.024 13.1674 18.75V21.375V22.3594C13.1674 23.2658 12.5147 24 11.7089 24H10.8338H9.67071C9.61602 24 9.56133 23.9959 9.50663 23.9918C9.46288 23.9959 9.41913 24 9.37537 24H8.79199C7.98619 24 7.33353 23.2658 7.33353 22.3594V17.7656C7.33353 17.7287 7.33353 17.6877 7.33718 17.6508V14.7961H6.16677C5.51046 14.7961 5 14.2219 5 13.4795C5 13.1104 5.10938 12.7822 5.36461 12.4951L14.7133 3.32812C14.9686 3.04102 15.2602 3 15.5155 3C15.7707 3 16.0624 3.08203 16.2812 3.28711L25.5934 12.4951C25.8851 12.7822 26.031 13.1104 25.9945 13.4795Z" fill="white"/>
</svg>
