<svg width="40" height="40" viewBox="0 0 40 40" fill="none" xmlns="http://www.w3.org/2000/svg">
<circle cx="20" cy="20" r="19.5" fill="white" stroke="#30B0C5"/>
<circle cx="20" cy="20" r="17" fill="#30B0C5"/>
<g clip-path="url(#clip0_3191_2864)">
<path d="M20 9C17.0149 9 16.6395 9.01375 15.4666 9.066C14.2938 9.121 13.4949 9.30525 12.795 9.5775C12.0605 9.85295 11.3954 10.2862 10.8466 10.8466C10.2862 11.3954 9.85295 12.0605 9.5775 12.795C9.30525 13.4935 9.11963 14.2937 9.066 15.4625C9.01375 16.6381 9 17.0121 9 20.0014C9 22.9879 9.01375 23.3619 9.066 24.5348C9.121 25.7063 9.30525 26.5051 9.5775 27.205C9.85937 27.9282 10.2348 28.5415 10.8466 29.1534C11.4571 29.7652 12.0704 30.142 12.7936 30.4225C13.4949 30.6947 14.2924 30.8804 15.4639 30.934C16.6381 30.9862 17.0121 31 20 31C22.9879 31 23.3605 30.9862 24.5348 30.934C25.7049 30.879 26.5065 30.6947 27.2064 30.4225C27.9403 30.1469 28.605 29.7137 29.1534 29.1534C29.7652 28.5415 30.1406 27.9282 30.4225 27.205C30.6934 26.5051 30.879 25.7063 30.934 24.5348C30.9862 23.3619 31 22.9879 31 20C31 17.0121 30.9862 16.6381 30.934 15.4639C30.879 14.2938 30.6934 13.4935 30.4225 12.795C30.1471 12.0605 29.7138 11.3954 29.1534 10.8466C28.6046 10.2862 27.9395 9.85295 27.205 9.5775C26.5037 9.30525 25.7035 9.11963 24.5334 9.066C23.3591 9.01375 22.9865 9 19.9973 9H20ZM19.0141 10.9828H20.0014C22.9384 10.9828 23.2862 10.9924 24.4454 11.046C25.5179 11.0941 26.1009 11.2743 26.4886 11.4241C27.0015 11.6235 27.3686 11.8627 27.7536 12.2477C28.1386 12.6327 28.3765 12.9985 28.5759 13.5128C28.7271 13.8991 28.9059 14.4821 28.954 15.5546C29.0076 16.7138 29.0186 17.0616 29.0186 19.9973C29.0186 22.9329 29.0076 23.2821 28.954 24.4412C28.9059 25.5137 28.7258 26.0954 28.5759 26.4831C28.3983 26.9601 28.117 27.3917 27.7522 27.7467C27.3672 28.1317 27.0015 28.3696 26.4873 28.569C26.1023 28.7203 25.5192 28.899 24.4454 28.9485C23.2862 29.0008 22.9384 29.0131 20.0014 29.0131C17.0644 29.0131 16.7151 29.0008 15.556 28.9485C14.4835 28.899 13.9019 28.7203 13.5141 28.569C13.0368 28.392 12.6047 28.1111 12.2491 27.7467C11.8838 27.3915 11.602 26.9594 11.4241 26.4817C11.2743 26.0954 11.0941 25.5124 11.046 24.4399C10.9938 23.2808 10.9828 22.9329 10.9828 19.9945C10.9828 17.0561 10.9938 16.711 11.046 15.5519C11.0955 14.4794 11.2743 13.8964 11.4255 13.5086C11.6249 12.9958 11.8641 12.6286 12.2491 12.2436C12.6341 11.8586 12.9999 11.6208 13.5141 11.4214C13.9019 11.2701 14.4835 11.0914 15.556 11.0419C16.5708 10.9951 16.964 10.9814 19.0141 10.98V10.9828ZM25.8726 12.8087C25.6993 12.8087 25.5276 12.8429 25.3675 12.9092C25.2073 12.9756 25.0618 13.0728 24.9392 13.1954C24.8167 13.3179 24.7194 13.4635 24.6531 13.6236C24.5868 13.7838 24.5526 13.9554 24.5526 14.1288C24.5526 14.3021 24.5868 14.4737 24.6531 14.6339C24.7194 14.794 24.8167 14.9396 24.9392 15.0621C25.0618 15.1847 25.2073 15.2819 25.3675 15.3483C25.5276 15.4146 25.6993 15.4488 25.8726 15.4488C26.2227 15.4488 26.5585 15.3097 26.806 15.0621C27.0536 14.8146 27.1926 14.4788 27.1926 14.1288C27.1926 13.7787 27.0536 13.4429 26.806 13.1954C26.5585 12.9478 26.2227 12.8087 25.8726 12.8087ZM20.0014 14.3515C19.2521 14.3398 18.508 14.4773 17.8123 14.7559C17.1167 15.0346 16.4835 15.4488 15.9495 15.9746C15.4155 16.5003 14.9914 17.127 14.7019 17.8182C14.4124 18.5094 14.2634 19.2513 14.2634 20.0007C14.2634 20.7501 14.4124 21.4919 14.7019 22.1831C14.9914 22.8743 15.4155 23.5011 15.9495 24.0268C16.4835 24.5525 17.1167 24.9668 17.8123 25.2454C18.508 25.5241 19.2521 25.6616 20.0014 25.6499C21.4844 25.6267 22.8988 25.0214 23.9393 23.9645C24.9799 22.9076 25.5631 21.4839 25.5631 20.0007C25.5631 18.5175 24.9799 17.0938 23.9393 16.0369C22.8988 14.98 21.4844 14.3746 20.0014 14.3515ZM20.0014 16.3329C20.4829 16.3329 20.9598 16.4277 21.4047 16.612C21.8496 16.7963 22.2539 17.0664 22.5944 17.407C22.9349 17.7475 23.2051 18.1517 23.3894 18.5967C23.5736 19.0416 23.6685 19.5184 23.6685 20C23.6685 20.4816 23.5736 20.9584 23.3894 21.4033C23.2051 21.8483 22.9349 22.2525 22.5944 22.593C22.2539 22.9336 21.8496 23.2037 21.4047 23.388C20.9598 23.5723 20.4829 23.6671 20.0014 23.6671C19.0288 23.6671 18.096 23.2808 17.4083 22.593C16.7206 21.9053 16.3343 20.9726 16.3343 20C16.3343 19.0274 16.7206 18.0947 17.4083 17.407C18.096 16.7192 19.0288 16.3329 20.0014 16.3329Z" fill="white"/>
</g>
<defs>
<clipPath id="clip0_3191_2864">
<rect width="22" height="22" fill="white" transform="translate(9 9)"/>
</clipPath>
</defs>
</svg>
