<svg width="14" height="19" viewBox="0 0 14 19" fill="none" xmlns="http://www.w3.org/2000/svg">
<path d="M7.86406 17.7948C9.73437 15.6192 14 10.3463 14 7.38454C14 3.79245 10.8646 0.878113 7 0.878113C3.13542 0.878113 0 3.79245 0 7.38454C0 10.3463 4.26562 15.6192 6.13594 17.7948C6.58437 18.3133 7.41562 18.3133 7.86406 17.7948ZM7 9.55335C5.71302 9.55335 4.66667 8.58077 4.66667 7.38454C4.66667 6.1883 5.71302 5.21573 7 5.21573C8.28698 5.21573 9.33333 6.1883 9.33333 7.38454C9.33333 8.58077 8.28698 9.55335 7 9.55335Z" fill="#87BB4D"/>
</svg>
