<svg width="21" height="21" viewBox="0 0 21 21" fill="none" xmlns="http://www.w3.org/2000/svg">
<path d="M16.625 1.75V3.5H14.875V6.125C15.5712 6.125 16.2389 6.40156 16.7312 6.89384C17.2234 7.38613 17.5 8.05381 17.5 8.75V18.375C17.5 18.6071 17.4078 18.8296 17.2437 18.9937C17.0796 19.1578 16.8571 19.25 16.625 19.25H4.375C4.14294 19.25 3.92038 19.1578 3.75628 18.9937C3.59219 18.8296 3.5 18.6071 3.5 18.375V8.75C3.5 8.05381 3.77656 7.38613 4.26884 6.89384C4.76113 6.40156 5.42881 6.125 6.125 6.125V3.5H4.375V1.75H16.625ZM14.875 7.875H6.125C5.89294 7.875 5.67038 7.96719 5.50628 8.13128C5.34219 8.29538 5.25 8.51794 5.25 8.75V17.5H15.75V8.75C15.75 8.51794 15.6578 8.29538 15.4937 8.13128C15.3296 7.96719 15.1071 7.875 14.875 7.875ZM11.375 9.625V11.375H13.125V13.125H11.3741L11.375 14.875H9.625L9.62412 13.125H7.875V11.375H9.625V9.625H11.375ZM13.125 3.5H7.875V6.125H13.125V3.5Z" fill="#80B644"/>
</svg>
