<svg width="12" height="12" viewBox="0 0 12 12" fill="none" xmlns="http://www.w3.org/2000/svg">
<path d="M9.5 1V2H8.5V3.5C8.89782 3.5 9.27936 3.65804 9.56066 3.93934C9.84196 4.22064 10 4.60218 10 5V10.5C10 10.6326 9.94732 10.7598 9.85355 10.8536C9.75979 10.9473 9.63261 11 9.5 11H2.5C2.36739 11 2.24021 10.9473 2.14645 10.8536C2.05268 10.7598 2 10.6326 2 10.5V5C2 4.60218 2.15804 4.22064 2.43934 3.93934C2.72064 3.65804 3.10218 3.5 3.5 3.5V2H2.5V1H9.5ZM8.5 4.5H3.5C3.36739 4.5 3.24021 4.55268 3.14645 4.64645C3.05268 4.74021 3 4.86739 3 5V10H9V5C9 4.86739 8.94732 4.74021 8.85355 4.64645C8.75979 4.55268 8.63261 4.5 8.5 4.5ZM6.5 5.5V6.5H7.5V7.5H6.4995L6.5 8.5H5.5L5.4995 7.5H4.5V6.5H5.5V5.5H6.5ZM7.5 2H4.5V3.5H7.5V2Z" fill="#FF8205"/>
</svg>
