<svg width="30" height="30" viewBox="0 0 21 23" fill="none" xmlns="http://www.w3.org/2000/svg">
<path d="M6.75 6.46875V8.625H14.25V6.46875C14.25 4.4832 12.5719 2.875 10.5 2.875C8.42813 2.875 6.75 4.4832 6.75 6.46875ZM3.75 8.625V6.46875C3.75 2.89746 6.77344 0 10.5 0C14.2266 0 17.25 2.89746 17.25 6.46875V8.625H18C19.6547 8.625 21 9.91426 21 11.5V20.125C21 21.7107 19.6547 23 18 23H3C1.34531 23 0 21.7107 0 20.125V11.5C0 9.91426 1.34531 8.625 3 8.625H3.75Z" fill="#C6CACA"/>
<path d="M11.3462 10.8462C11.3462 10.3781 10.968 10 10.5 10C10.032 10 9.65385 10.3781 9.65385 10.8462V14.6538H5.84615C5.37812 14.6538 5 15.032 5 15.5C5 15.968 5.37812 16.3462 5.84615 16.3462H9.65385V20.1538C9.65385 20.6219 10.032 21 10.5 21C10.968 21 11.3462 20.6219 11.3462 20.1538V16.3462H15.1538C15.6219 16.3462 16 15.968 16 15.5C16 15.032 15.6219 14.6538 15.1538 14.6538H11.3462V10.8462Z" fill="white"/>
</svg>
