<svg width="30" height="29" viewBox="0 0 30 29" fill="none" xmlns="http://www.w3.org/2000/svg">
<rect width="30" height="29" rx="7" fill="#30B0C5"/>
<path d="M11.75 9.46875V11.625H19.25V9.46875C19.25 7.4832 17.5719 5.875 15.5 5.875C13.4281 5.875 11.75 7.4832 11.75 9.46875ZM8.75 11.625V9.46875C8.75 5.89746 11.7734 3 15.5 3C19.2266 3 22.25 5.89746 22.25 9.46875V11.625H23C24.6547 11.625 26 12.9143 26 14.5V23.125C26 24.7107 24.6547 26 23 26H8C6.34531 26 5 24.7107 5 23.125V14.5C5 12.9143 6.34531 11.625 8 11.625H8.75Z" fill="white"/>
<path d="M16.3462 13.8462C16.3462 13.3781 15.968 13 15.5 13C15.032 13 14.6538 13.3781 14.6538 13.8462V17.6538H10.8462C10.3781 17.6538 10 18.032 10 18.5C10 18.968 10.3781 19.3462 10.8462 19.3462H14.6538V23.1538C14.6538 23.6219 15.032 24 15.5 24C15.968 24 16.3462 23.6219 16.3462 23.1538V19.3462H20.1538C20.6219 19.3462 21 18.968 21 18.5C21 18.032 20.6219 17.6538 20.1538 17.6538H16.3462V13.8462Z" fill="#30B0C5"/>
</svg>
