<svg width="21" height="21" viewBox="0 0 21 21" fill="none" xmlns="http://www.w3.org/2000/svg">
<g clip-path="url(#clip0_399_2970)">
<path d="M9.84375 3.28125V1.3125C9.84375 1.13845 9.91289 0.971532 10.036 0.848461C10.159 0.72539 10.326 0.65625 10.5 0.65625C10.674 0.65625 10.841 0.72539 10.964 0.848461C11.0871 0.971532 11.1562 1.13845 11.1562 1.3125V3.28125C11.1562 3.4553 11.0871 3.62222 10.964 3.74529C10.841 3.86836 10.674 3.9375 10.5 3.9375C10.326 3.9375 10.159 3.86836 10.036 3.74529C9.91289 3.62222 9.84375 3.4553 9.84375 3.28125ZM10.5 5.25C9.46165 5.25 8.44661 5.55791 7.58326 6.13478C6.7199 6.71166 6.04699 7.5316 5.64963 8.49091C5.25227 9.45022 5.1483 10.5058 5.35088 11.5242C5.55345 12.5426 6.05346 13.4781 6.78769 14.2123C7.52191 14.9465 8.45738 15.4466 9.47578 15.6491C10.4942 15.8517 11.5498 15.7477 12.5091 15.3504C13.4684 14.953 14.2883 14.2801 14.8652 13.4167C15.4421 12.5534 15.75 11.5384 15.75 10.5C15.7485 9.10808 15.1949 7.7736 14.2106 6.78937C13.2264 5.80513 11.8919 5.25152 10.5 5.25ZM4.7857 5.7143C4.90884 5.83744 5.07585 5.90661 5.25 5.90661C5.42415 5.90661 5.59116 5.83744 5.7143 5.7143C5.83744 5.59116 5.90661 5.42415 5.90661 5.25C5.90661 5.07585 5.83744 4.90884 5.7143 4.7857L4.4018 3.4732C4.27866 3.35006 4.11164 3.28089 3.9375 3.28089C3.76336 3.28089 3.59634 3.35006 3.4732 3.4732C3.35006 3.59634 3.28089 3.76336 3.28089 3.9375C3.28089 4.11164 3.35006 4.27866 3.4732 4.4018L4.7857 5.7143ZM4.7857 15.2857L3.4732 16.5982C3.35006 16.7213 3.28089 16.8884 3.28089 17.0625C3.28089 17.2366 3.35006 17.4037 3.4732 17.5268C3.59634 17.6499 3.76336 17.7191 3.9375 17.7191C4.11164 17.7191 4.27866 17.6499 4.4018 17.5268L5.7143 16.2143C5.77527 16.1533 5.82364 16.0809 5.85663 16.0013C5.88963 15.9216 5.90661 15.8362 5.90661 15.75C5.90661 15.6638 5.88963 15.5784 5.85663 15.4987C5.82364 15.4191 5.77527 15.3467 5.7143 15.2857C5.65332 15.2247 5.58094 15.1764 5.50128 15.1434C5.42161 15.1104 5.33623 15.0934 5.25 15.0934C5.16377 15.0934 5.07839 15.1104 4.99872 15.1434C4.91906 15.1764 4.84668 15.2247 4.7857 15.2857ZM15.75 5.90625C15.8362 5.90632 15.9216 5.8894 16.0012 5.85646C16.0809 5.82353 16.1533 5.77522 16.2143 5.7143L17.5268 4.4018C17.6499 4.27866 17.7191 4.11164 17.7191 3.9375C17.7191 3.76336 17.6499 3.59634 17.5268 3.4732C17.4037 3.35006 17.2366 3.28089 17.0625 3.28089C16.8884 3.28089 16.7213 3.35006 16.5982 3.4732L15.2857 4.7857C15.1938 4.87748 15.1312 4.99446 15.1059 5.12183C15.0805 5.2492 15.0935 5.38123 15.1432 5.50121C15.1929 5.62118 15.2771 5.72371 15.3851 5.79582C15.4932 5.86792 15.6201 5.90635 15.75 5.90625ZM16.2143 15.2857C16.0912 15.1626 15.9241 15.0934 15.75 15.0934C15.5759 15.0934 15.4088 15.1626 15.2857 15.2857C15.1626 15.4088 15.0934 15.5759 15.0934 15.75C15.0934 15.9241 15.1626 16.0912 15.2857 16.2143L16.5982 17.5268C16.6592 17.5878 16.7316 17.6361 16.8112 17.6691C16.8909 17.7021 16.9763 17.7191 17.0625 17.7191C17.1487 17.7191 17.2341 17.7021 17.3138 17.6691C17.3934 17.6361 17.4658 17.5878 17.5268 17.5268C17.5878 17.4658 17.6361 17.3934 17.6691 17.3138C17.7021 17.2341 17.7191 17.1487 17.7191 17.0625C17.7191 16.9763 17.7021 16.8909 17.6691 16.8112C17.6361 16.7316 17.5878 16.6592 17.5268 16.5982L16.2143 15.2857ZM3.9375 10.5C3.9375 10.326 3.86836 10.159 3.74529 10.036C3.62222 9.91289 3.4553 9.84375 3.28125 9.84375H1.3125C1.13845 9.84375 0.971532 9.91289 0.848461 10.036C0.72539 10.159 0.65625 10.326 0.65625 10.5C0.65625 10.674 0.72539 10.841 0.848461 10.964C0.971532 11.0871 1.13845 11.1562 1.3125 11.1562H3.28125C3.4553 11.1562 3.62222 11.0871 3.74529 10.964C3.86836 10.841 3.9375 10.674 3.9375 10.5ZM10.5 17.0625C10.326 17.0625 10.159 17.1316 10.036 17.2547C9.91289 17.3778 9.84375 17.5447 9.84375 17.7188V19.6875C9.84375 19.8615 9.91289 20.0285 10.036 20.1515C10.159 20.2746 10.326 20.3438 10.5 20.3438C10.674 20.3438 10.841 20.2746 10.964 20.1515C11.0871 20.0285 11.1562 19.8615 11.1562 19.6875V17.7188C11.1562 17.5447 11.0871 17.3778 10.964 17.2547C10.841 17.1316 10.674 17.0625 10.5 17.0625ZM19.6875 9.84375H17.7188C17.5447 9.84375 17.3778 9.91289 17.2547 10.036C17.1316 10.159 17.0625 10.326 17.0625 10.5C17.0625 10.674 17.1316 10.841 17.2547 10.964C17.3778 11.0871 17.5447 11.1562 17.7188 11.1562H19.6875C19.8615 11.1562 20.0285 11.0871 20.1515 10.964C20.2746 10.841 20.3438 10.674 20.3438 10.5C20.3438 10.326 20.2746 10.159 20.1515 10.036C20.0285 9.91289 19.8615 9.84375 19.6875 9.84375Z" fill="#F2D225"/>
</g>
<defs>
<clipPath id="clip0_399_2970">
<rect width="21" height="21" fill="white"/>
</clipPath>
</defs>
</svg>
