<svg width="21" height="21" viewBox="0 0 21 21" fill="none" xmlns="http://www.w3.org/2000/svg">
<path d="M8.75 18.375H12.25C12.25 19.3375 11.4625 20.125 10.5 20.125C9.5375 20.125 8.75 19.3375 8.75 18.375ZM18.375 16.625V17.5H2.625V16.625L4.375 14.875V9.625C4.375 6.9125 6.125 4.55 8.75 3.7625V3.5C8.75 2.5375 9.5375 1.75 10.5 1.75C11.4625 1.75 12.25 2.5375 12.25 3.5V3.7625C14.875 4.55 16.625 6.9125 16.625 9.625V14.875L18.375 16.625ZM14.875 9.625C14.875 7.175 12.95 5.25 10.5 5.25C8.05 5.25 6.125 7.175 6.125 9.625V15.75H14.875V9.625Z" fill="#383836"/>
</svg>
