<svg width="20" height="20" viewBox="0 0 20 20" fill="none" xmlns="http://www.w3.org/2000/svg">
<g clip-path="url(#clip0_3127_625)">
<path d="M13.3337 5.83341C13.3337 6.93848 12.8947 7.99829 12.1133 8.77969C11.3319 9.56109 10.2721 10.0001 9.16699 10.0001C8.06192 10.0001 7.00212 9.56109 6.22071 8.77969C5.43931 7.99829 5.00033 6.93848 5.00033 5.83341C5.00033 4.72835 5.43931 3.66854 6.22071 2.88714C7.00212 2.10573 8.06192 1.66675 9.16699 1.66675C10.2721 1.66675 11.3319 2.10573 12.1133 2.88714C12.8947 3.66854 13.3337 4.72835 13.3337 5.83341ZM9.16699 10.8334C11.1637 10.8334 12.9795 11.4117 14.3153 12.2267C14.982 12.6334 15.552 13.1134 15.9637 13.6351C16.3687 14.1476 16.667 14.7609 16.667 15.4167C16.667 16.1209 16.3245 16.6759 15.8312 17.0717C15.3645 17.4467 14.7487 17.6951 14.0945 17.8684C12.7795 18.2159 11.0245 18.3334 9.16699 18.3334C7.30949 18.3334 5.55449 18.2167 4.23949 17.8684C3.58533 17.6951 2.96949 17.4467 2.50283 17.0717C2.00866 16.6751 1.66699 16.1209 1.66699 15.4167C1.66699 14.7609 1.96533 14.1476 2.37033 13.6342C2.78199 13.1134 3.35116 12.6342 4.01866 12.2259C5.35449 11.4126 7.17116 10.8334 9.16699 10.8334ZM17.5003 10.8334C17.7127 10.8336 17.917 10.915 18.0715 11.0608C18.2259 11.2066 18.3189 11.4059 18.3313 11.6179C18.3437 11.8299 18.2748 12.0387 18.1384 12.2016C18.0021 12.3645 17.8087 12.4692 17.5978 12.4942L17.5003 12.5001H16.667C16.4546 12.4998 16.2503 12.4185 16.0959 12.2727C15.9414 12.1269 15.8485 11.9276 15.836 11.7156C15.8236 11.5036 15.8926 11.2948 16.0289 11.1319C16.1652 10.969 16.3586 10.8643 16.5695 10.8392L16.667 10.8334H17.5003ZM15.0003 9.16675C15.0003 8.94573 15.0881 8.73377 15.2444 8.57749C15.4007 8.42121 15.6126 8.33341 15.8337 8.33341H17.5003C17.7213 8.33341 17.9333 8.42121 18.0896 8.57749C18.2459 8.73377 18.3337 8.94573 18.3337 9.16675C18.3337 9.38776 18.2459 9.59972 18.0896 9.756C17.9333 9.91228 17.7213 10.0001 17.5003 10.0001H15.8337C15.6126 10.0001 15.4007 9.91228 15.2444 9.756C15.0881 9.59972 15.0003 9.38776 15.0003 9.16675ZM15.0003 5.83341C14.7793 5.83341 14.5673 5.92121 14.4111 6.07749C14.2548 6.23377 14.167 6.44573 14.167 6.66675C14.167 6.88776 14.2548 7.09972 14.4111 7.256C14.5673 7.41228 14.7793 7.50008 15.0003 7.50008H17.5003C17.7213 7.50008 17.9333 7.41228 18.0896 7.256C18.2459 7.09972 18.3337 6.88776 18.3337 6.66675C18.3337 6.44573 18.2459 6.23377 18.0896 6.07749C17.9333 5.92121 17.7213 5.83341 17.5003 5.83341H15.0003Z" fill="#797777"/>
</g>
<defs>
<clipPath id="clip0_3127_625">
<rect width="20" height="20" fill="white"/>
</clipPath>
</defs>
</svg>
