<svg width="18" height="18" viewBox="0 0 18 18" fill="none" xmlns="http://www.w3.org/2000/svg">
<path d="M11.6114 11.7295L11.2132 12.1495C11.2132 12.1495 10.2656 13.1462 7.68 10.424C5.09437 7.70192 6.042 6.70529 6.042 6.70529L6.29312 6.44017C6.91087 5.78917 6.9695 4.74442 6.42962 3.98142L5.32712 2.42129C4.65862 1.47629 3.368 1.35204 2.60237 2.15792L1.2295 3.60254C0.850624 4.00242 0.596874 4.51954 0.627499 5.09442C0.706249 6.56442 1.3345 9.72579 4.838 13.4157C8.55412 17.3269 12.041 17.4827 13.4664 17.3418C13.9179 17.298 14.3099 17.0539 14.6257 16.7214L15.8682 15.4124C16.7082 14.5287 16.472 13.0149 15.3975 12.3972L13.7262 11.4347C13.021 11.0295 12.1626 11.1485 11.6114 11.7287V11.7295ZM9.60237 0.645044C9.6305 0.473282 9.72563 0.319695 9.86687 0.217988C10.0081 0.116281 10.1839 0.0747626 10.3557 0.102544C10.3776 0.106919 10.4494 0.120044 10.487 0.128794C10.5614 0.144544 10.6655 0.170794 10.795 0.207544C11.0549 0.283669 11.418 0.408794 11.8537 0.608294C12.7252 1.00817 13.8846 1.70729 15.0886 2.91042C16.2926 4.11442 16.9917 5.27467 17.3916 6.14617C17.5911 6.58192 17.7154 6.94417 17.7915 7.20492C17.8299 7.33593 17.8628 7.46846 17.8904 7.60217L17.8947 7.62929C17.9236 7.80257 17.8831 7.98024 17.7821 8.12396C17.6811 8.26768 17.5277 8.36594 17.3549 8.39754C17.1835 8.42536 17.0082 8.38418 16.8671 8.28299C16.7261 8.18181 16.6309 8.02888 16.6024 7.85767C16.5845 7.76097 16.5608 7.66542 16.5315 7.57154C16.4421 7.27104 16.331 6.97744 16.199 6.69304C15.8577 5.94929 15.2435 4.92204 14.1602 3.83879C13.0779 2.75554 12.0497 2.14217 11.306 1.80092C11.0219 1.66899 10.7286 1.55786 10.4284 1.46842C10.3363 1.44244 10.2435 1.4191 10.1501 1.39842C9.97809 1.37001 9.82412 1.27508 9.72148 1.13412C9.61883 0.993168 9.57574 0.817499 9.6015 0.645044H9.60237Z" fill="#30B0C5"/>
<path fill-rule="evenodd" clip-rule="evenodd" d="M9.79984 3.66378C9.82344 3.58086 9.86314 3.50341 9.91668 3.43584C9.97021 3.36827 10.0365 3.31191 10.1119 3.26998C10.1872 3.22805 10.27 3.20138 10.3557 3.19148C10.4413 3.18158 10.5281 3.18865 10.611 3.21228L10.6136 3.21316L10.6162 3.21403L10.6232 3.21578L10.6407 3.22103L10.6897 3.23853C10.9223 3.32812 11.1468 3.4373 11.3608 3.56491C11.7887 3.81866 12.3732 4.23866 13.0601 4.92641C13.747 5.61328 14.1678 6.19778 14.4216 6.62566C14.5485 6.84003 14.6325 7.01416 14.6867 7.14191C14.7158 7.20873 14.7421 7.27675 14.7655 7.34578L14.7698 7.36328L14.7725 7.37028V7.37291L14.7733 7.37378C14.7733 7.37378 14.7733 7.37553 14.1433 7.55578L14.7733 7.37553C14.8178 7.5411 14.7957 7.71749 14.7117 7.86696C14.6278 8.01644 14.4887 8.12713 14.3242 8.17537C14.1597 8.22362 13.9829 8.20557 13.8315 8.1251C13.6801 8.04463 13.5662 7.90813 13.5142 7.74478L13.5116 7.73603C13.4501 7.58365 13.3769 7.43622 13.2928 7.29503C13.0968 6.96516 12.7442 6.46641 12.1317 5.85391C11.5192 5.24141 11.0213 4.88966 10.6915 4.69453C10.5503 4.61041 10.4029 4.53728 10.2505 4.47578L10.2417 4.47228C10.0764 4.42259 9.93737 4.30978 9.85467 4.15829C9.77196 4.00679 9.75226 3.82969 9.79984 3.66378Z" fill="#30B0C5"/>
</svg>
