<!DOCTYPE svg PUBLIC "-//W3C//DTD SVG 1.1//EN" "http://www.w3.org/Graphics/SVG/1.1/DTD/svg11.dtd">
<!-- Uploaded to: SVG Repo, www.svgrepo.com, Transformed by: SVG Repo Mixer Tools -->
<svg width="64px" height="64px" viewBox="-17.76 -17.76 83.52 83.52" xmlns="http://www.w3.org/2000/svg" fill="#000000" stroke="#000000" stroke-width="0.00048000000000000007">
<g id="SVGRepo_bgCarrier" stroke-width="0"/>
<g id="SVGRepo_tracerCarrier" stroke-linecap="round" stroke-linejoin="round" stroke="#ffffff" stroke-width="1.344">
<title>ONE-xicons</title>
<path d="M24,48A24,24,0,1,1,48,24,24,24,0,0,1,24,48ZM24,1A23,23,0,1,0,47,24,23,23,0,0,0,24,1Z"/>
<path d="M31.5,24.5h-15a0.5,0.5,0,0,1,0-1h15A0.5,0.5,0,0,1,31.5,24.5Z"/>
<path d="M24,32a0.5,0.5,0,0,1-.5-0.5v-15a0.5,0.5,0,0,1,1,0v15A0.5,0.5,0,0,1,24,32Z"/>
<rect width="48" height="48" fill="none"/>
</g>
<g id="SVGRepo_iconCarrier">
<title>ONE-xicons</title>
<path d="M24,48A24,24,0,1,1,48,24,24,24,0,0,1,24,48ZM24,1A23,23,0,1,0,47,24,23,23,0,0,0,24,1Z"/>
<path d="M31.5,24.5h-15a0.5,0.5,0,0,1,0-1h15A0.5,0.5,0,0,1,31.5,24.5Z"/>
<path d="M24,32a0.5,0.5,0,0,1-.5-0.5v-15a0.5,0.5,0,0,1,1,0v15A0.5,0.5,0,0,1,24,32Z"/>
<rect width="48" height="48" fill="none"/>
</g>
</svg>