<svg width="24" height="24" viewBox="0 0 24 24" fill="none" xmlns="http://www.w3.org/2000/svg">
<path d="M15.75 13C15.75 12.8011 15.671 12.6103 15.5303 12.4697C15.3897 12.329 15.1989 12.25 15 12.25H9C8.80109 12.25 8.61032 12.329 8.46967 12.4697C8.32902 12.6103 8.25 12.8011 8.25 13C8.25 13.1989 8.32902 13.3897 8.46967 13.5303C8.61032 13.671 8.80109 13.75 9 13.75H15C15.1989 13.75 15.3897 13.671 15.5303 13.5303C15.671 13.3897 15.75 13.1989 15.75 13ZM15.75 17C15.75 16.8011 15.671 16.6103 15.5303 16.4697C15.3897 16.329 15.1989 16.25 15 16.25H9C8.80109 16.25 8.61032 16.329 8.46967 16.4697C8.32902 16.6103 8.25 16.8011 8.25 17C8.25 17.1989 8.32902 17.3897 8.46967 17.5303C8.61032 17.671 8.80109 17.75 9 17.75H15C15.1989 17.75 15.3897 17.671 15.5303 17.5303C15.671 17.3897 15.75 17.1989 15.75 17Z" fill="#80B644"/>
<path fill-rule="evenodd" clip-rule="evenodd" d="M7 2.25C6.27065 2.25 5.57118 2.53973 5.05546 3.05546C4.53973 3.57118 4.25 4.27065 4.25 5V19C4.25 19.7293 4.53973 20.4288 5.05546 20.9445C5.57118 21.4603 6.27065 21.75 7 21.75H17C17.7293 21.75 18.4288 21.4603 18.9445 20.9445C19.4603 20.4288 19.75 19.7293 19.75 19V7.968C19.75 7.587 19.626 7.217 19.396 6.913L16.398 2.945C16.2349 2.72912 16.0239 2.554 15.7817 2.43341C15.5395 2.31282 15.2726 2.25004 15.002 2.25H7ZM5.75 5C5.75 4.31 6.31 3.75 7 3.75H14.25V8.147C14.25 8.561 14.586 8.897 15 8.897H18.25V19C18.25 19.69 17.69 20.25 17 20.25H7C6.31 20.25 5.75 19.69 5.75 19V5Z" fill="#80B644"/>
</svg>
