<svg width="21" height="21" viewBox="0 0 21 21" fill="none" xmlns="http://www.w3.org/2000/svg">
<path fill-rule="evenodd" clip-rule="evenodd" d="M12.4688 2.1875C12.4688 2.12948 12.4457 2.07384 12.4047 2.03282C12.3637 1.9918 12.308 1.96875 12.25 1.96875H6.125C5.48682 1.96875 4.87478 2.22226 4.42352 2.67352C3.97226 3.12478 3.71875 3.73682 3.71875 4.375V16.625C3.71875 17.2632 3.97226 17.8752 4.42352 18.3265C4.87478 18.7777 5.48682 19.0312 6.125 19.0312H14.875C15.5132 19.0312 16.1252 18.7777 16.5765 18.3265C17.0277 17.8752 17.2812 17.2632 17.2812 16.625V8.00363C17.2812 7.94561 17.2582 7.88997 17.2172 7.84895C17.1762 7.80792 17.1205 7.78488 17.0625 7.78488H13.125C12.951 7.78488 12.784 7.71573 12.661 7.59266C12.5379 7.46959 12.4688 7.30267 12.4688 7.12863V2.1875ZM13.125 10.7188C13.299 10.7188 13.466 10.7879 13.589 10.911C13.7121 11.034 13.7812 11.201 13.7812 11.375C13.7812 11.549 13.7121 11.716 13.589 11.839C13.466 11.9621 13.299 12.0312 13.125 12.0312H7.875C7.70095 12.0312 7.53403 11.9621 7.41096 11.839C7.28789 11.716 7.21875 11.549 7.21875 11.375C7.21875 11.201 7.28789 11.034 7.41096 10.911C7.53403 10.7879 7.70095 10.7188 7.875 10.7188H13.125ZM13.125 14.2188C13.299 14.2188 13.466 14.2879 13.589 14.411C13.7121 14.534 13.7812 14.701 13.7812 14.875C13.7812 15.049 13.7121 15.216 13.589 15.339C13.466 15.4621 13.299 15.5312 13.125 15.5312H7.875C7.70095 15.5312 7.53403 15.4621 7.41096 15.339C7.28789 15.216 7.21875 15.049 7.21875 14.875C7.21875 14.701 7.28789 14.534 7.41096 14.411C7.53403 14.2879 7.70095 14.2188 7.875 14.2188H13.125Z" fill="#80B644"/>
<path d="M13.7812 2.47102C13.7812 2.31002 13.9501 2.20765 14.0753 2.30827C14.1811 2.39402 14.2765 2.49377 14.3579 2.60752L16.9943 6.2799C17.0538 6.3639 16.989 6.4724 16.8858 6.4724H14C13.942 6.4724 13.8863 6.44935 13.8453 6.40833C13.8043 6.3673 13.7812 6.31166 13.7812 6.25365V2.47102Z" fill="#80B644"/>
</svg>
