<svg width="24" height="24" viewBox="0 0 24 24" fill="none" xmlns="http://www.w3.org/2000/svg">
<path d="M3 6V18H13.32C13.1075 17.3546 12.9995 16.6795 13 16H7C7 15.4696 6.78929 14.9609 6.41421 14.5858C6.03914 14.2107 5.53043 14 5 14V10C6.11 10 7 9.11 7 8H17C17 8.53043 17.2107 9.03914 17.5858 9.41421C17.9609 9.78929 18.4696 10 19 10V10.06C19.67 10.06 20.34 10.18 21 10.4V6H3ZM12 9C10.3 9.03 9 10.3 9 12C9 13.7 10.3 14.94 12 15C12.38 15 12.77 14.92 13.14 14.77C13.41 13.67 13.86 12.63 14.97 11.61C14.85 10.28 13.59 8.97 12 9ZM19 11L21.25 13.25L19 15.5V14C17.15 14 15.94 15.96 16.76 17.62L15.67 18.71C13.91 16.05 15.81 12.5 19 12.5V11ZM19 22L16.75 19.75L19 17.5V19C20.85 19 22.06 17.04 21.24 15.38L22.33 14.29C24.09 16.95 22.19 20.5 19 20.5V22Z" fill="#80B644"/>
</svg>
