<svg width="21" height="21" viewBox="0 0 21 21" fill="none" xmlns="http://www.w3.org/2000/svg">
<path d="M7.70005 9.80002C6.77179 9.80002 5.88155 9.43127 5.22518 8.7749C4.5688 8.11852 4.20005 7.22828 4.20005 6.30002V3.50002C4.20005 3.31437 4.2738 3.13633 4.40507 3.00505C4.53635 2.87377 4.7144 2.80002 4.90005 2.80002H5.60005C5.7857 2.80002 5.96375 2.72627 6.09502 2.595C6.2263 2.46372 6.30005 2.28568 6.30005 2.10002C6.30005 1.91437 6.2263 1.73633 6.09502 1.60505C5.96375 1.47377 5.7857 1.40002 5.60005 1.40002H4.90005C4.34309 1.40002 3.80895 1.62127 3.41512 2.0151C3.0213 2.40893 2.80005 2.94307 2.80005 3.50002V6.30002C2.80095 7.09084 2.99379 7.86962 3.36201 8.56948C3.73023 9.26934 4.26282 9.86937 4.91405 10.318C5.53973 10.8696 6.04715 11.5423 6.40567 12.2955C6.76419 13.0486 6.96639 13.8666 7.00005 14.7C7.00005 15.9996 7.5163 17.2459 8.43523 18.1648C9.35415 19.0838 10.6005 19.6 11.9 19.6C13.1996 19.6 14.4459 19.0838 15.3649 18.1648C16.2838 17.2459 16.8 15.9996 16.8 14.7V13.902C17.4599 13.7316 18.035 13.3265 18.4175 12.7624C18.8 12.1984 18.9636 11.5142 18.8777 10.8381C18.7919 10.1621 18.4624 9.54051 17.951 9.09C17.4397 8.63949 16.7816 8.39094 16.1 8.39094C15.4185 8.39094 14.7604 8.63949 14.2491 9.09C13.7377 9.54051 13.4082 10.1621 13.3224 10.8381C13.2365 11.5142 13.4001 12.1984 13.7826 12.7624C14.1651 13.3265 14.7402 13.7316 15.4 13.902V14.7C15.4 15.6283 15.0313 16.5185 14.3749 17.1749C13.7185 17.8313 12.8283 18.2 11.9 18.2C10.9718 18.2 10.0816 17.8313 9.42518 17.1749C8.7688 16.5185 8.40005 15.6283 8.40005 14.7C8.43548 13.8655 8.63986 13.0469 9.00082 12.2937C9.36178 11.5405 9.87181 10.8684 10.5 10.318C11.1487 9.86781 11.6786 9.2671 12.0443 8.56734C12.41 7.86757 12.6007 7.0896 12.6 6.30002V3.50002C12.6 2.94307 12.3788 2.40893 11.985 2.0151C11.5911 1.62127 11.057 1.40002 10.5 1.40002H9.80005C9.6144 1.40002 9.43635 1.47377 9.30507 1.60505C9.1738 1.73633 9.10005 1.91437 9.10005 2.10002C9.10005 2.28568 9.1738 2.46372 9.30507 2.595C9.43635 2.72627 9.6144 2.80002 9.80005 2.80002H10.5C10.6857 2.80002 10.8637 2.87377 10.995 3.00505C11.1263 3.13633 11.2 3.31437 11.2 3.50002V6.30002C11.2 6.75965 11.1095 7.21478 10.9336 7.63942C10.7577 8.06405 10.4999 8.44989 10.1749 8.7749C9.84992 9.0999 9.46408 9.35771 9.03944 9.5336C8.6148 9.70949 8.15968 9.80002 7.70005 9.80002ZM16.1 12.6C15.7287 12.6 15.3727 12.4525 15.1101 12.19C14.8475 11.9274 14.7 11.5713 14.7 11.2C14.7 10.8287 14.8475 10.4726 15.1101 10.2101C15.3727 9.94752 15.7287 9.80002 16.1 9.80002C16.4714 9.80002 16.8274 9.94752 17.09 10.2101C17.3525 10.4726 17.5 10.8287 17.5 11.2C17.5 11.5713 17.3525 11.9274 17.09 12.19C16.8274 12.4525 16.4714 12.6 16.1 12.6Z" fill="black"/>
</svg>
