<svg width="14" height="15" viewBox="0 0 14 15" fill="none" xmlns="http://www.w3.org/2000/svg">
<path d="M11.3756 6.31499C11.3756 7.52147 10.9681 8.63596 10.2818 9.54016L13.7436 12.8705C14.0855 13.199 14.0855 13.7326 13.7436 14.0612C13.4018 14.3897 12.8467 14.3897 12.5049 14.0612L9.04302 10.7309C8.10235 11.3933 6.94292 11.7823 5.68778 11.7823C2.54583 11.7823 0 9.33514 0 6.31499C0 3.29485 2.54583 0.847717 5.68778 0.847717C8.82973 0.847717 11.3756 3.29485 11.3756 6.31499ZM5.68778 10.1C7.86171 10.1 9.62547 8.40465 9.62547 6.31499C9.62547 4.22534 7.86171 2.52996 5.68778 2.52996C3.51384 2.52996 1.75009 4.22534 1.75009 6.31499C1.75009 8.40465 3.51384 10.1 5.68778 10.1Z" fill="#ACB5BA"/>
</svg>
