<svg width="23" height="24" viewBox="0 0 23 24" fill="none" xmlns="http://www.w3.org/2000/svg">
<path d="M18.1114 1.31086C18.0589 1.25748 17.9964 1.21509 17.9273 1.1862C17.8583 1.1573 17.7842 1.14247 17.7094 1.14258C17.6346 1.14269 17.5605 1.15773 17.4916 1.18682C17.4226 1.21591 17.3602 1.25847 17.3079 1.312C17.2025 1.42176 17.1444 1.56854 17.1461 1.72073C17.1478 1.87292 17.2092 2.01835 17.3171 2.12572C18.1395 2.9493 18.7592 3.95277 19.1273 5.05692C19.4954 6.16107 19.6019 7.33567 19.4382 8.488C19.4164 8.63841 19.4545 8.79137 19.5443 8.91402C19.634 9.03667 19.7683 9.11924 19.9182 9.144C19.9921 9.15547 20.0675 9.15209 20.14 9.13407C20.2126 9.11606 20.2808 9.08376 20.3407 9.03906C20.4006 8.99437 20.451 8.93818 20.4889 8.87378C20.5269 8.80938 20.5516 8.73807 20.5616 8.664C20.751 7.3323 20.6282 5.97482 20.2029 4.69871C19.7777 3.4226 19.0617 2.2628 18.1114 1.31086ZM6.23364 1.71772C6.15222 1.51049 5.99335 1.34309 5.79068 1.25092C5.588 1.15876 5.35742 1.14908 5.14773 1.22393C4.93804 1.29877 4.76571 1.45227 4.6672 1.65194C4.56869 1.85161 4.55173 2.08177 4.61993 2.29372L7.03593 9.05943C7.06395 9.13504 7.07669 9.21545 7.07339 9.29602C7.0701 9.37658 7.05085 9.45569 7.01675 9.52876C6.98265 9.60182 6.93438 9.66739 6.87474 9.72166C6.81511 9.77593 6.74529 9.81782 6.66935 9.8449C6.5934 9.87198 6.51283 9.88372 6.43231 9.87942C6.35179 9.87513 6.27293 9.85489 6.20029 9.81988C6.12766 9.78487 6.0627 9.7358 6.00917 9.67549C5.95565 9.61518 5.91463 9.54485 5.8885 9.46857L3.94907 4.00572C3.87063 3.79494 3.71249 3.62344 3.50876 3.52819C3.30503 3.43295 3.07203 3.42159 2.86 3.49656C2.64797 3.57154 2.4739 3.72684 2.37533 3.92898C2.27675 4.13113 2.26158 4.36391 2.33307 4.57714L5.24393 12.7783C2.8245 12.1211 1.9845 13.4343 1.73535 14.0251C1.67478 14.1703 1.76507 14.3223 1.91593 14.368C2.85307 14.6503 6.10107 15.8194 9.73536 19.3017C10.4256 19.9634 11.4405 20.1931 12.3239 19.824L14.7902 18.7931C15.1575 18.6395 15.4783 18.3926 15.7209 18.0769C15.9634 17.7612 16.1193 17.3876 16.1731 16.9931L16.4862 14.6926C16.6759 13.2995 16.5418 11.8814 16.0942 10.5486L14.8542 6.86057L14.8462 6.864L13.5285 2.872C13.4551 2.6568 13.2993 2.47955 13.0953 2.37924C12.8912 2.27894 12.6557 2.26379 12.4405 2.33714C12.2253 2.4105 12.048 2.56633 11.9477 2.77037C11.8474 2.97441 11.8323 3.20994 11.9056 3.42514L13.0062 6.77943C13.0644 6.95925 13.0499 7.1547 12.9658 7.32395C12.8817 7.4932 12.7347 7.62283 12.5562 7.6851C12.3778 7.74737 12.1821 7.73733 12.0109 7.65714C11.8398 7.57695 11.7068 7.43297 11.6405 7.256L9.91364 2.288C9.83726 2.07386 9.67894 1.89883 9.4735 1.80142C9.26807 1.704 9.03236 1.69219 8.81821 1.76857C8.60407 1.84496 8.42904 2.00328 8.33163 2.20871C8.23422 2.41414 8.2224 2.64986 8.29878 2.864L10.0211 7.81829C10.0591 7.91296 10.0776 8.01433 10.0755 8.11634C10.0734 8.21834 10.0508 8.31887 10.0089 8.4119C9.96699 8.50493 9.90674 8.58854 9.83175 8.65772C9.75676 8.7269 9.66857 8.78022 9.57247 8.81448C9.47637 8.84875 9.37434 8.86326 9.2725 8.85713C9.17066 8.85101 9.0711 8.82438 8.9798 8.77884C8.8885 8.7333 8.80734 8.6698 8.74118 8.59213C8.67502 8.51447 8.62522 8.42424 8.59478 8.32686L6.23364 1.71772ZM16.2759 3.51314C16.3404 3.47461 16.4118 3.44915 16.4861 3.43823C16.5604 3.42732 16.6361 3.43115 16.7089 3.44951C16.7817 3.46787 16.8502 3.5004 16.9104 3.54525C16.9707 3.59009 17.0215 3.64637 17.0599 3.71086L17.3982 4.27657C17.968 5.22956 18.2737 6.31712 18.2839 7.42743C18.2847 7.50247 18.2706 7.57693 18.2426 7.64654C18.2146 7.71616 18.1731 7.77957 18.1206 7.83317C18.0681 7.88676 18.0055 7.92948 17.9365 7.95889C17.8674 7.9883 17.7933 8.00382 17.7182 8.00457C17.6432 8.00532 17.5687 7.99129 17.4991 7.96326C17.4295 7.93524 17.3661 7.89378 17.3125 7.84125C17.2589 7.78871 17.2162 7.72614 17.1868 7.6571C17.1573 7.58806 17.1418 7.5139 17.1411 7.43886C17.1327 6.53106 16.8826 5.64189 16.4165 4.86286L16.0794 4.29714C16.0408 4.23276 16.0152 4.16141 16.0042 4.08716C15.9932 4.01292 15.997 3.93723 16.0152 3.86442C16.0335 3.79162 16.0659 3.72312 16.1106 3.66285C16.1554 3.60258 16.2115 3.55171 16.2759 3.51314Z" fill="#80B742"/>
</svg>
