<svg width="21" height="21" viewBox="0 0 21 21" fill="none" xmlns="http://www.w3.org/2000/svg">
<path d="M15.75 14.07C15.085 14.07 14.49 14.3325 14.035 14.7438L7.79625 11.1125C7.84 10.9113 7.875 10.71 7.875 10.5C7.875 10.29 7.84 10.0887 7.79625 9.8875L13.965 6.29125C14.4375 6.72875 15.0588 7 15.75 7C17.2025 7 18.375 5.8275 18.375 4.375C18.375 2.9225 17.2025 1.75 15.75 1.75C14.2975 1.75 13.125 2.9225 13.125 4.375C13.125 4.585 13.16 4.78625 13.2038 4.9875L7.035 8.58375C6.5625 8.14625 5.94125 7.875 5.25 7.875C3.7975 7.875 2.625 9.0475 2.625 10.5C2.625 11.9525 3.7975 13.125 5.25 13.125C5.94125 13.125 6.5625 12.8537 7.035 12.4162L13.265 16.0563C13.2212 16.24 13.195 16.4325 13.195 16.625C13.195 18.0338 14.3413 19.18 15.75 19.18C17.1587 19.18 18.305 18.0338 18.305 16.625C18.305 15.2163 17.1587 14.07 15.75 14.07Z" fill="black"/>
</svg>
