<svg width="13" height="11" viewBox="0 0 13 11" fill="none" xmlns="http://www.w3.org/2000/svg">
<path d="M8.22148 0.0682867C7.25156 -0.199299 6.23848 0.343236 5.96172 1.28101L5.81699 1.77199C5.72305 2.09113 5.55293 2.38572 5.32188 2.63121L4.01934 4.01578C3.79336 4.25636 3.81113 4.62951 4.05996 4.848C4.30879 5.06648 4.69473 5.0493 4.9207 4.80872L6.22324 3.42415C6.58125 3.04364 6.84277 2.58948 6.9875 2.09604L7.13223 1.60506C7.22363 1.29329 7.56133 1.11162 7.88633 1.2C8.21133 1.28838 8.39668 1.61488 8.30527 1.92911L8.16055 2.42009C8.01582 2.90862 7.7873 3.37014 7.48516 3.78257C7.35312 3.96177 7.33789 4.19745 7.44199 4.39384C7.54609 4.59023 7.7543 4.71298 7.98281 4.71298H11.375C11.5984 4.71298 11.7812 4.88973 11.7812 5.10576C11.7812 5.2727 11.6721 5.41754 11.5172 5.474C11.3293 5.54274 11.1871 5.69494 11.1389 5.88397C11.0906 6.073 11.1414 6.27184 11.2734 6.41668C11.3369 6.48542 11.375 6.57625 11.375 6.6769C11.375 6.86839 11.2328 7.02796 11.0449 7.06233C10.8367 7.1016 10.6615 7.24153 10.5879 7.43302C10.5143 7.6245 10.5473 7.84299 10.6793 8.00501C10.7326 8.07129 10.7656 8.15476 10.7656 8.24805C10.7656 8.41253 10.659 8.55736 10.5066 8.61383C10.2146 8.7243 10.0572 9.02871 10.141 9.32084C10.1512 9.35276 10.1562 9.38958 10.1562 9.4264C10.1562 9.64244 9.97344 9.81919 9.75 9.81919H7.27441C6.95449 9.81919 6.63965 9.72836 6.37305 9.55651L4.80645 8.54755C4.52715 8.36588 4.14883 8.43953 3.96094 8.71202C3.77305 8.98452 3.84922 9.34785 4.13105 9.52951L5.69766 10.5385C6.16484 10.8404 6.71328 11 7.27441 11H9.75C10.6311 11 11.3471 10.3224 11.375 9.47796C11.7457 9.19073 11.9844 8.74885 11.9844 8.2505C11.9844 8.14003 11.9717 8.03447 11.9514 7.93136C12.3424 7.64414 12.5938 7.18998 12.5938 6.67936C12.5938 6.51979 12.5684 6.36513 12.5227 6.22029C12.8172 5.93307 13 5.54028 13 5.10576C13 4.23918 12.2738 3.53462 11.375 3.53462H9.03145C9.15078 3.27931 9.25234 3.01418 9.33105 2.74414L9.47578 2.25316C9.75254 1.31538 9.19141 0.335872 8.22148 0.0682867ZM0.8125 3.92741C0.363086 3.92741 0 4.27846 0 4.71298V10.212C0 10.6465 0.363086 10.9975 0.8125 10.9975H2.4375C2.88691 10.9975 3.25 10.6465 3.25 10.212V4.71298C3.25 4.27846 2.88691 3.92741 2.4375 3.92741H0.8125Z" fill="#1FB89C"/>
</svg>
