<svg width="21" height="21" viewBox="0 0 21 21" fill="none" xmlns="http://www.w3.org/2000/svg">
<path d="M15.75 16.1875C16.4762 16.1875 17.0625 15.6012 17.0625 14.875C17.0625 14.1488 16.4762 13.5625 15.75 13.5625C15.0238 13.5625 14.4375 14.1488 14.4375 14.875C14.4375 15.6012 15.0238 16.1875 15.75 16.1875ZM17.0625 8.3125H14.875V10.5H18.7775L17.0625 8.3125ZM5.25 16.1875C5.97625 16.1875 6.5625 15.6012 6.5625 14.875C6.5625 14.1488 5.97625 13.5625 5.25 13.5625C4.52375 13.5625 3.9375 14.1488 3.9375 14.875C3.9375 15.6012 4.52375 16.1875 5.25 16.1875ZM17.5 7L20.125 10.5V14.875H18.375C18.375 16.3275 17.2025 17.5 15.75 17.5C14.2975 17.5 13.125 16.3275 13.125 14.875H7.875C7.875 16.3275 6.7025 17.5 5.25 17.5C3.7975 17.5 2.625 16.3275 2.625 14.875H0.875V5.25C0.875 4.27875 1.65375 3.5 2.625 3.5H14.875V7H17.5ZM2.625 5.25V13.125H3.29C3.77125 12.5913 4.47125 12.25 5.25 12.25C6.02875 12.25 6.72875 12.5913 7.21 13.125H13.125V5.25H2.625ZM8.75 6.125L11.8125 9.1875L8.75 12.25V10.0625H4.375V8.3125H8.75V6.125Z" fill="black"/>
</svg>
