<svg width="23" height="24" viewBox="0 0 23 24" fill="none" xmlns="http://www.w3.org/2000/svg">
<path d="M17.9238 17.518C16.9311 15.793 15.0668 14.634 12.9375 14.634H10.0625C7.9332 14.634 6.06895 15.793 5.07617 17.518C6.65742 19.279 8.94844 20.384 11.5 20.384C14.0516 20.384 16.3426 19.2745 17.9238 17.518ZM23 11.759C23 18.111 17.852 23.259 11.5 23.259C5.14805 23.259 0 18.111 0 11.759C0 5.40708 5.14805 0.259033 11.5 0.259033C17.852 0.259033 23 5.40708 23 11.759ZM11.5 12.4778C13.2879 12.4778 14.7344 11.0313 14.7344 9.24341C14.7344 7.45552 13.2879 6.00903 11.5 6.00903C9.71211 6.00903 8.26562 7.45552 8.26562 9.24341C8.26562 11.0313 9.71211 12.4778 11.5 12.4778Z" fill="#989FA7"/>
</svg>
