<svg width="21" height="21" viewBox="0 0 21 21" fill="none" xmlns="http://www.w3.org/2000/svg">
<path d="M14.0002 7.875C13.5964 10.5 12.6877 12.9062 10.7189 12.9062C8.75017 12.9062 8.09392 10.7188 7.43767 7.875C6.78142 5.03125 7.43767 2.625 10.7189 2.625C14.0002 2.625 14.404 5.25 14.0002 7.875Z" stroke="#80B644" stroke-width="1.75"/>
<path d="M14.2188 5.46868C14.9844 4.75468 15.7644 4.5193 16.9925 4.59543C18.8353 4.71005 19.25 5.97093 19.25 7.85568M19.25 7.85568C19.25 9.74087 18.5277 11.455 17.0883 11.0669C15.6489 10.6793 15.8502 9.14805 16.5235 8.43012C17.1964 7.71218 18.3741 7.41949 19.25 7.85568ZM7.21875 5.24993C6.44438 4.57443 5.53 4.5193 4.41306 4.59587C2.73744 4.71049 1.75 5.99018 1.75 7.87493M1.75 7.87493C1.75 9.75968 3.01744 11.4546 4.326 11.0669C5.635 10.6789 5.45212 9.14762 4.84006 8.42968C4.22756 7.71218 2.54669 7.4383 1.75 7.87493Z" stroke="#80B644" stroke-width="1.75" stroke-linecap="round"/>
<path d="M8.75 11.8125V18.8125M12.6875 11.8125V18.8125" stroke="#80B644" stroke-width="1.75" stroke-linecap="round" stroke-linejoin="round"/>
</svg>
