<svg width="12" height="12" viewBox="0 0 12 12" fill="none" xmlns="http://www.w3.org/2000/svg">
<path d="M6 3.10742C3.17025 3.10742 0.9375 6.00017 0.9375 6.00017C0.9375 6.00017 3.17025 8.8933 6 8.8933C8.16375 8.8933 11.0625 6.00017 11.0625 6.00017C11.0625 6.00017 8.16375 3.10742 6 3.10742ZM6 7.80242C5.00625 7.80242 4.19737 6.99392 4.19737 6.00017C4.19737 5.00642 5.00625 4.19755 6 4.19755C6.99375 4.19755 7.80262 5.00642 7.80262 6.00017C7.80262 6.99392 6.99375 7.80242 6 7.80242ZM6 4.94792C5.86017 4.94528 5.72122 4.97054 5.59126 5.02223C5.46131 5.07391 5.34296 5.15099 5.24314 5.24894C5.14332 5.3469 5.06402 5.46377 5.0099 5.59272C4.95577 5.72168 4.92789 5.86013 4.92789 5.99998C4.92789 6.13984 4.95577 6.27829 5.0099 6.40725C5.06402 6.5362 5.14332 6.65307 5.24314 6.75103C5.34296 6.84898 5.46131 6.92605 5.59126 6.97774C5.72122 7.02943 5.86017 7.05469 6 7.05205C6.27558 7.04684 6.53813 6.93371 6.73118 6.73698C6.92423 6.54025 7.03239 6.27562 7.03239 5.99998C7.03239 5.72435 6.92423 5.45972 6.73118 5.26299C6.53813 5.06625 6.27558 4.95312 6 4.94792Z" fill="#777474"/>
</svg>
