<svg width="12" height="13" viewBox="0 0 12 13" fill="none" xmlns="http://www.w3.org/2000/svg">
<path d="M10.875 6.39563C10.875 7.68856 10.3614 8.92854 9.44715 9.84278C8.53291 10.757 7.29293 11.2706 6 11.2706C4.70707 11.2706 3.46709 10.757 2.55285 9.84278C1.63861 8.92854 1.125 7.68856 1.125 6.39563C1.125 5.1027 1.63861 3.86272 2.55285 2.94848C3.46709 2.03424 4.70707 1.52063 6 1.52063C7.29293 1.52063 8.53291 2.03424 9.44715 2.94848C10.3614 3.86272 10.875 5.1027 10.875 6.39563ZM0 6.39563C0 7.98693 0.632141 9.51305 1.75736 10.6383C2.88258 11.7635 4.4087 12.3956 6 12.3956C7.5913 12.3956 9.11742 11.7635 10.2426 10.6383C11.3679 9.51305 12 7.98693 12 6.39563C12 4.80433 11.3679 3.27821 10.2426 2.15299C9.11742 1.02777 7.5913 0.39563 6 0.39563C4.4087 0.39563 2.88258 1.02777 1.75736 2.15299C0.632141 3.27821 0 4.80433 0 6.39563ZM5.4375 3.20813V6.39563C5.4375 6.58313 5.53125 6.75891 5.68828 6.86438L7.93828 8.36438C8.19609 8.53782 8.54531 8.4675 8.71875 8.20735C8.89219 7.94719 8.82187 7.60032 8.56172 7.42688L6.5625 6.09563V3.20813C6.5625 2.89641 6.31172 2.64563 6 2.64563C5.68828 2.64563 5.4375 2.89641 5.4375 3.20813Z" fill="#5C5D5D"/>
</svg>
