<svg width="18" height="18" viewBox="0 0 18 18" fill="none" xmlns="http://www.w3.org/2000/svg">
<path d="M8.99979 3.9375C6.17829 3.9375 3.63186 5.10863 1.79248 6.97837L2.58392 7.76925C4.21854 6.10425 6.48823 5.0625 8.99979 5.0625C11.5114 5.0625 13.781 6.10425 15.4157 7.76981L16.2071 6.97837C14.3677 5.10863 11.8207 3.9375 8.99979 3.9375ZM8.99979 6.75C6.95229 6.75 5.10842 7.605 3.77923 8.96513L4.57011 9.756C5.69511 8.60006 7.26448 7.875 8.99979 7.875C10.7357 7.875 12.3045 8.60063 13.4295 9.756L14.2204 8.96456C12.8912 7.605 11.0479 6.75 8.99979 6.75ZM8.99979 9.5625C7.72742 9.5625 6.58498 10.1008 5.76542 10.9513L6.55629 11.7422C6.87055 11.4096 7.2493 11.1445 7.66942 10.9632C8.08954 10.7818 8.54221 10.688 8.99979 10.6875C9.96167 10.6875 10.8279 11.0964 11.4433 11.7422L12.2342 10.9513C11.4169 10.1008 10.2722 9.5625 8.99979 9.5625ZM8.99979 12.375C8.76387 12.3756 8.53074 12.4261 8.31565 12.523C8.10056 12.6199 7.90836 12.7612 7.75161 12.9375L8.99979 14.1857L10.248 12.9375C10.0912 12.7612 9.89902 12.6199 9.68393 12.523C9.46884 12.4261 9.23571 12.3756 8.99979 12.375Z" fill="white"/>
</svg>
