<svg width="16" height="16" viewBox="0 0 16 16" fill="none" xmlns="http://www.w3.org/2000/svg">
<g clip-path="url(#clip0_834_3409)">
<path d="M8.06853 -0.000124104C8.33053 -0.000124104 8.58853 0.0168759 8.82853 0.0568759C9.0649 0.0878485 9.29812 0.139377 9.52553 0.210876C9.75353 0.279876 9.97653 0.365876 10.1995 0.473876C10.4165 0.576876 10.6395 0.702876 10.8625 0.839876C11.2395 1.07988 11.6105 1.27388 11.9885 1.42888C12.7327 1.72671 13.5196 1.90394 14.3195 1.95388C14.7255 1.98288 15.1425 1.99988 15.5765 1.99988V5.99988C15.5765 6.75988 15.4795 7.47988 15.2855 8.16588C15.0992 8.84209 14.8344 9.49418 14.4965 10.1089C14.1601 10.7227 13.7621 11.3007 13.3085 11.8339C12.8481 12.3792 12.3495 12.8911 11.8165 13.3659C11.2765 13.842 10.7078 14.2845 10.1135 14.6909C9.51953 15.1029 8.91953 15.4859 8.31953 15.8339L8.07953 15.9769L7.83953 15.8339C7.22273 15.4768 6.62027 15.0955 6.03353 14.6909C5.43593 14.2891 4.8669 13.8464 4.33053 13.3659C3.79792 12.8911 3.29967 12.3792 2.83953 11.8339C2.38723 11.2984 1.98739 10.7208 1.64553 10.1089C1.31347 9.49145 1.04894 8.84002 0.856534 8.16588C0.661304 7.46062 0.56505 6.73164 0.570534 5.99988V1.99988C1.00553 1.99988 1.42253 1.98288 1.82853 1.95388C2.2282 1.92612 2.62527 1.86896 3.01653 1.78288C3.39953 1.69688 3.78253 1.58288 4.15953 1.42888C4.55074 1.27099 4.92581 1.07575 5.27953 0.845876C5.71953 0.559876 6.16553 0.348876 6.60553 0.209876C7.0794 0.0646075 7.57294 -0.00623561 8.06853 -0.000124104ZM14.5705 2.98288C13.8136 2.94615 13.0636 2.81959 12.3365 2.60588C11.6133 2.39013 10.9244 2.07262 10.2905 1.66288C9.96176 1.44707 9.60471 1.2778 9.22953 1.15988C8.85477 1.04661 8.46503 0.990645 8.07353 0.993876C7.67913 0.991325 7.28653 1.04727 6.90853 1.15988C6.5328 1.27397 6.17621 1.4435 5.85053 1.66288C5.21559 2.07485 4.52491 2.39376 3.79953 2.60988C3.09053 2.81588 2.34853 2.94188 1.57053 2.98788V6.00488C1.57053 6.66788 1.65653 7.30188 1.82853 7.91288C2.00376 8.51857 2.24522 9.1031 2.54853 9.65588C2.85548 10.2144 3.21727 10.741 3.62853 11.2279C4.04553 11.7189 4.49053 12.1759 4.97053 12.6099C5.45053 13.0449 5.95353 13.4449 6.47953 13.8159C7.01053 14.1879 7.54253 14.5249 8.07353 14.8329C8.61725 14.5163 9.14739 14.177 9.66253 13.8159C10.192 13.446 10.6977 13.0432 11.1765 12.6099C11.6565 12.1759 12.1025 11.7189 12.5195 11.2279C12.9308 10.741 13.2926 10.2144 13.5995 9.65588C13.9015 9.10379 14.1394 8.51899 14.3085 7.91288C14.4858 7.29249 14.574 6.65007 14.5705 6.00488V2.98288Z" fill="#80B644"/>
<path fill-rule="evenodd" clip-rule="evenodd" d="M11.7968 4.70905L11.3568 4.33105L10.9508 4.36606L6.59083 9.51405L5.10583 7.39405L4.70583 7.32605L4.24283 7.65705L4.17383 8.05705L6.08283 10.7831L6.29983 10.9031L6.75683 10.9311L6.99083 10.8291L11.8258 5.11405L11.7968 4.70905Z" fill="#80B644"/>
</g>
<defs>
<clipPath id="clip0_834_3409">
<rect width="16" height="16" fill="white"/>
</clipPath>
</defs>
</svg>
