<svg width="40" height="40" viewBox="0 0 40 40" fill="none" xmlns="http://www.w3.org/2000/svg">
<circle cx="20" cy="20" r="19.5" fill="white" stroke="#30B0C5"/>
<circle cx="20" cy="20" r="17" fill="#30B0C5"/>
<g clip-path="url(#clip0_3191_2865)">
<path d="M20 11C20.855 11 21.732 11.022 22.582 11.058L23.586 11.106L24.547 11.163L25.447 11.224L26.269 11.288C27.161 11.3563 28.0004 11.7369 28.6395 12.363C29.2786 12.9891 29.6764 13.8205 29.763 14.711L29.803 15.136L29.878 16.046C29.948 16.989 30 18.017 30 19C30 19.983 29.948 21.011 29.878 21.954L29.803 22.864C29.79 23.01 29.777 23.151 29.763 23.289C29.6764 24.1796 29.2784 25.0112 28.6391 25.6373C27.9999 26.2634 27.1602 26.6439 26.268 26.712L25.448 26.775L24.548 26.837L23.586 26.894L22.582 26.942C21.7218 26.9794 20.861 26.9987 20 27C19.139 26.9987 18.2782 26.9794 17.418 26.942L16.414 26.894L15.453 26.837L14.553 26.775L13.731 26.712C12.839 26.6437 11.9996 26.2631 11.3605 25.637C10.7214 25.0109 10.3236 24.1795 10.237 23.289L10.197 22.864L10.122 21.954C10.0455 20.9711 10.0048 19.9858 10 19C10 18.017 10.052 16.989 10.122 16.046L10.197 15.136C10.21 14.99 10.223 14.849 10.237 14.711C10.3235 13.8207 10.7212 12.9894 11.3601 12.3633C11.999 11.7373 12.8381 11.3565 13.73 11.288L14.551 11.224L15.451 11.163L16.413 11.106L17.417 11.058C18.2775 11.0206 19.1387 11.0013 20 11ZM20 13C19.175 13 18.326 13.022 17.5 13.056L16.522 13.103L15.583 13.158L14.701 13.218L13.893 13.281C13.4683 13.3111 13.068 13.4906 12.7631 13.7877C12.4581 14.0848 12.2682 14.4803 12.227 14.904C12.11 16.113 12 17.618 12 19C12 20.382 12.11 21.887 12.227 23.096C12.312 23.968 13.004 24.646 13.893 24.719L14.701 24.781L15.583 24.841L16.522 24.897L17.5 24.944C18.326 24.978 19.175 25 20 25C20.825 25 21.674 24.978 22.5 24.944L23.478 24.897L24.417 24.842L25.299 24.782L26.107 24.719C26.5317 24.6889 26.932 24.5094 27.2369 24.2123C27.5419 23.9152 27.7318 23.5197 27.773 23.096C27.89 21.887 28 20.382 28 19C28 17.618 27.89 16.113 27.773 14.904C27.7318 14.4803 27.5419 14.0848 27.2369 13.7877C26.932 13.4906 26.5317 13.3111 26.107 13.281L25.299 13.219L24.417 13.159L23.478 13.103L22.5 13.056C21.6671 13.0202 20.8336 13.0015 20 13ZM18 16.575C17.9999 16.4773 18.0237 16.381 18.0694 16.2946C18.115 16.2081 18.181 16.1341 18.2618 16.079C18.3425 16.0239 18.4354 15.9894 18.5326 15.9784C18.6297 15.9674 18.728 15.9803 18.819 16.016L18.9 16.056L23.1 18.48C23.1836 18.5283 23.2544 18.596 23.3063 18.6774C23.3581 18.7589 23.3896 18.8517 23.3979 18.9478C23.4062 19.044 23.3912 19.1408 23.3542 19.23C23.3171 19.3192 23.2591 19.3981 23.185 19.46L23.1 19.52L18.9 21.945C18.8154 21.994 18.72 22.0216 18.6223 22.0253C18.5246 22.0291 18.4274 22.0089 18.3393 21.9665C18.2511 21.9241 18.1747 21.8608 18.1166 21.7821C18.0585 21.7034 18.0205 21.6117 18.006 21.515L18 21.425V16.575Z" fill="white"/>
</g>
<defs>
<clipPath id="clip0_3191_2865">
<rect width="24" height="24" fill="white" transform="translate(8 7)"/>
</clipPath>
</defs>
</svg>
